<?xml version="1.0" encoding="utf-8"?>
<svg version="1.1" baseProfile="full" width="800" height="600" xmlns="http://www.w3.org/2000/svg">
<clipPath>
<rect x="0" y="0" width="800" height="600" fill="rgb(0,0,0)" />
</clipPath>
<text x="230" y="34" fill="rgb(0,0,0)">
Number of Elements Versus Time (1000 samples at each N)</text>
<line x1="192.857" y1="50" x2="192.857" y2="550" stroke="rgb(200,200,200)" />
<line x1="296.032" y1="50" x2="296.032" y2="550" stroke="rgb(200,200,200)" />
<line x1="399.206" y1="50" x2="399.206" y2="550" stroke="rgb(200,200,200)" />
<line x1="502.381" y1="50" x2="502.381" y2="550" stroke="rgb(200,200,200)" />
<line x1="605.556" y1="50" x2="605.556" y2="550" stroke="rgb(200,200,200)" />
<line x1="708.73" y1="50" x2="708.73" y2="550" stroke="rgb(200,200,200)" />
<line x1="100" y1="550" x2="750" y2="550" stroke="rgb(200,200,200)" />
<line x1="100" y1="516.197" x2="750" y2="516.197" stroke="rgb(200,200,200)" />
<line x1="100" y1="482.394" x2="750" y2="482.394" stroke="rgb(200,200,200)" />
<line x1="100" y1="448.59" x2="750" y2="448.59" stroke="rgb(200,200,200)" />
<line x1="100" y1="414.787" x2="750" y2="414.787" stroke="rgb(200,200,200)" />
<line x1="100" y1="380.984" x2="750" y2="380.984" stroke="rgb(200,200,200)" />
<line x1="100" y1="347.181" x2="750" y2="347.181" stroke="rgb(200,200,200)" />
<line x1="100" y1="313.378" x2="750" y2="313.378" stroke="rgb(200,200,200)" />
<line x1="100" y1="279.574" x2="750" y2="279.574" stroke="rgb(200,200,200)" />
<line x1="100" y1="245.771" x2="750" y2="245.771" stroke="rgb(200,200,200)" />
<line x1="100" y1="211.968" x2="750" y2="211.968" stroke="rgb(200,200,200)" />
<line x1="100" y1="178.165" x2="750" y2="178.165" stroke="rgb(200,200,200)" />
<line x1="100" y1="144.362" x2="750" y2="144.362" stroke="rgb(200,200,200)" />
<line x1="100" y1="110.558" x2="750" y2="110.558" stroke="rgb(200,200,200)" />
<line x1="100" y1="76.7552" x2="750" y2="76.7552" stroke="rgb(200,200,200)" />
<line x1="100" y1="550" x2="750" y2="550" stroke="rgb(0,0,0)" />
<line x1="110.317" y1="550" x2="110.317" y2="554" stroke="rgb(0,0,0)" />
<line x1="130.952" y1="550" x2="130.952" y2="554" stroke="rgb(0,0,0)" />
<line x1="151.587" y1="550" x2="151.587" y2="554" stroke="rgb(0,0,0)" />
<line x1="172.222" y1="550" x2="172.222" y2="554" stroke="rgb(0,0,0)" />
<text x="192" y="578" fill="rgb(0,0,0)">
1000</text>
<line x1="192.857" y1="550" x2="192.857" y2="558" stroke="rgb(0,0,0)" />
<line x1="213.492" y1="550" x2="213.492" y2="554" stroke="rgb(0,0,0)" />
<line x1="234.127" y1="550" x2="234.127" y2="554" stroke="rgb(0,0,0)" />
<line x1="254.762" y1="550" x2="254.762" y2="554" stroke="rgb(0,0,0)" />
<line x1="275.397" y1="550" x2="275.397" y2="554" stroke="rgb(0,0,0)" />
<text x="296" y="578" fill="rgb(0,0,0)">
2000</text>
<line x1="296.032" y1="550" x2="296.032" y2="558" stroke="rgb(0,0,0)" />
<line x1="316.667" y1="550" x2="316.667" y2="554" stroke="rgb(0,0,0)" />
<line x1="337.302" y1="550" x2="337.302" y2="554" stroke="rgb(0,0,0)" />
<line x1="357.937" y1="550" x2="357.937" y2="554" stroke="rgb(0,0,0)" />
<line x1="378.571" y1="550" x2="378.571" y2="554" stroke="rgb(0,0,0)" />
<text x="399" y="578" fill="rgb(0,0,0)">
3000</text>
<line x1="399.206" y1="550" x2="399.206" y2="558" stroke="rgb(0,0,0)" />
<line x1="419.841" y1="550" x2="419.841" y2="554" stroke="rgb(0,0,0)" />
<line x1="440.476" y1="550" x2="440.476" y2="554" stroke="rgb(0,0,0)" />
<line x1="461.111" y1="550" x2="461.111" y2="554" stroke="rgb(0,0,0)" />
<line x1="481.746" y1="550" x2="481.746" y2="554" stroke="rgb(0,0,0)" />
<text x="502" y="578" fill="rgb(0,0,0)">
4000</text>
<line x1="502.381" y1="550" x2="502.381" y2="558" stroke="rgb(0,0,0)" />
<line x1="523.016" y1="550" x2="523.016" y2="554" stroke="rgb(0,0,0)" />
<line x1="543.651" y1="550" x2="543.651" y2="554" stroke="rgb(0,0,0)" />
<line x1="564.286" y1="550" x2="564.286" y2="554" stroke="rgb(0,0,0)" />
<line x1="584.921" y1="550" x2="584.921" y2="554" stroke="rgb(0,0,0)" />
<text x="605" y="578" fill="rgb(0,0,0)">
5000</text>
<line x1="605.556" y1="550" x2="605.556" y2="558" stroke="rgb(0,0,0)" />
<line x1="626.19" y1="550" x2="626.19" y2="554" stroke="rgb(0,0,0)" />
<line x1="646.825" y1="550" x2="646.825" y2="554" stroke="rgb(0,0,0)" />
<line x1="667.46" y1="550" x2="667.46" y2="554" stroke="rgb(0,0,0)" />
<line x1="688.095" y1="550" x2="688.095" y2="554" stroke="rgb(0,0,0)" />
<text x="708" y="578" fill="rgb(0,0,0)">
6000</text>
<line x1="708.73" y1="550" x2="708.73" y2="558" stroke="rgb(0,0,0)" />
<line x1="729.365" y1="550" x2="729.365" y2="554" stroke="rgb(0,0,0)" />
<line x1="750" y1="550" x2="750" y2="554" stroke="rgb(0,0,0)" />
<text x="409" y="594" fill="rgb(0,0,0)">
N</text>
<line x1="100" y1="50" x2="100" y2="550" stroke="rgb(0,0,0)" />
<text x="58" y="558" fill="rgb(0,0,0)">
0</text>
<line x1="100" y1="550" x2="92" y2="550" stroke="rgb(0,0,0)" />
<line x1="100" y1="543.239" x2="96" y2="543.239" stroke="rgb(0,0,0)" />
<line x1="100" y1="536.479" x2="96" y2="536.479" stroke="rgb(0,0,0)" />
<line x1="100" y1="529.718" x2="96" y2="529.718" stroke="rgb(0,0,0)" />
<line x1="100" y1="522.957" x2="96" y2="522.957" stroke="rgb(0,0,0)" />
<text x="40" y="524" fill="rgb(0,0,0)">
2000</text>
<line x1="100" y1="516.197" x2="92" y2="516.197" stroke="rgb(0,0,0)" />
<line x1="100" y1="509.436" x2="96" y2="509.436" stroke="rgb(0,0,0)" />
<line x1="100" y1="502.676" x2="96" y2="502.676" stroke="rgb(0,0,0)" />
<line x1="100" y1="495.915" x2="96" y2="495.915" stroke="rgb(0,0,0)" />
<line x1="100" y1="489.154" x2="96" y2="489.154" stroke="rgb(0,0,0)" />
<text x="40" y="490" fill="rgb(0,0,0)">
4000</text>
<line x1="100" y1="482.394" x2="92" y2="482.394" stroke="rgb(0,0,0)" />
<line x1="100" y1="475.633" x2="96" y2="475.633" stroke="rgb(0,0,0)" />
<line x1="100" y1="468.872" x2="96" y2="468.872" stroke="rgb(0,0,0)" />
<line x1="100" y1="462.112" x2="96" y2="462.112" stroke="rgb(0,0,0)" />
<line x1="100" y1="455.351" x2="96" y2="455.351" stroke="rgb(0,0,0)" />
<text x="40" y="456" fill="rgb(0,0,0)">
6000</text>
<line x1="100" y1="448.59" x2="92" y2="448.59" stroke="rgb(0,0,0)" />
<line x1="100" y1="441.83" x2="96" y2="441.83" stroke="rgb(0,0,0)" />
<line x1="100" y1="435.069" x2="96" y2="435.069" stroke="rgb(0,0,0)" />
<line x1="100" y1="428.308" x2="96" y2="428.308" stroke="rgb(0,0,0)" />
<line x1="100" y1="421.548" x2="96" y2="421.548" stroke="rgb(0,0,0)" />
<text x="40" y="422" fill="rgb(0,0,0)">
8000</text>
<line x1="100" y1="414.787" x2="92" y2="414.787" stroke="rgb(0,0,0)" />
<line x1="100" y1="408.027" x2="96" y2="408.027" stroke="rgb(0,0,0)" />
<line x1="100" y1="401.266" x2="96" y2="401.266" stroke="rgb(0,0,0)" />
<line x1="100" y1="394.505" x2="96" y2="394.505" stroke="rgb(0,0,0)" />
<line x1="100" y1="387.745" x2="96" y2="387.745" stroke="rgb(0,0,0)" />
<text x="36" y="388" fill="rgb(0,0,0)">
10000</text>
<line x1="100" y1="380.984" x2="92" y2="380.984" stroke="rgb(0,0,0)" />
<line x1="100" y1="374.223" x2="96" y2="374.223" stroke="rgb(0,0,0)" />
<line x1="100" y1="367.463" x2="96" y2="367.463" stroke="rgb(0,0,0)" />
<line x1="100" y1="360.702" x2="96" y2="360.702" stroke="rgb(0,0,0)" />
<line x1="100" y1="353.941" x2="96" y2="353.941" stroke="rgb(0,0,0)" />
<text x="36" y="355" fill="rgb(0,0,0)">
12000</text>
<line x1="100" y1="347.181" x2="92" y2="347.181" stroke="rgb(0,0,0)" />
<line x1="100" y1="340.42" x2="96" y2="340.42" stroke="rgb(0,0,0)" />
<line x1="100" y1="333.66" x2="96" y2="333.66" stroke="rgb(0,0,0)" />
<line x1="100" y1="326.899" x2="96" y2="326.899" stroke="rgb(0,0,0)" />
<line x1="100" y1="320.138" x2="96" y2="320.138" stroke="rgb(0,0,0)" />
<text x="36" y="321" fill="rgb(0,0,0)">
14000</text>
<line x1="100" y1="313.378" x2="92" y2="313.378" stroke="rgb(0,0,0)" />
<line x1="100" y1="306.617" x2="96" y2="306.617" stroke="rgb(0,0,0)" />
<line x1="100" y1="299.856" x2="96" y2="299.856" stroke="rgb(0,0,0)" />
<line x1="100" y1="293.096" x2="96" y2="293.096" stroke="rgb(0,0,0)" />
<line x1="100" y1="286.335" x2="96" y2="286.335" stroke="rgb(0,0,0)" />
<text x="36" y="287" fill="rgb(0,0,0)">
16000</text>
<line x1="100" y1="279.574" x2="92" y2="279.574" stroke="rgb(0,0,0)" />
<line x1="100" y1="272.814" x2="96" y2="272.814" stroke="rgb(0,0,0)" />
<line x1="100" y1="266.053" x2="96" y2="266.053" stroke="rgb(0,0,0)" />
<line x1="100" y1="259.292" x2="96" y2="259.292" stroke="rgb(0,0,0)" />
<line x1="100" y1="252.532" x2="96" y2="252.532" stroke="rgb(0,0,0)" />
<text x="36" y="253" fill="rgb(0,0,0)">
18000</text>
<line x1="100" y1="245.771" x2="92" y2="245.771" stroke="rgb(0,0,0)" />
<line x1="100" y1="239.011" x2="96" y2="239.011" stroke="rgb(0,0,0)" />
<line x1="100" y1="232.25" x2="96" y2="232.25" stroke="rgb(0,0,0)" />
<line x1="100" y1="225.489" x2="96" y2="225.489" stroke="rgb(0,0,0)" />
<line x1="100" y1="218.729" x2="96" y2="218.729" stroke="rgb(0,0,0)" />
<text x="35" y="219" fill="rgb(0,0,0)">
20000</text>
<line x1="100" y1="211.968" x2="92" y2="211.968" stroke="rgb(0,0,0)" />
<line x1="100" y1="205.207" x2="96" y2="205.207" stroke="rgb(0,0,0)" />
<line x1="100" y1="198.447" x2="96" y2="198.447" stroke="rgb(0,0,0)" />
<line x1="100" y1="191.686" x2="96" y2="191.686" stroke="rgb(0,0,0)" />
<line x1="100" y1="184.925" x2="96" y2="184.925" stroke="rgb(0,0,0)" />
<text x="35" y="186" fill="rgb(0,0,0)">
22000</text>
<line x1="100" y1="178.165" x2="92" y2="178.165" stroke="rgb(0,0,0)" />
<line x1="100" y1="171.404" x2="96" y2="171.404" stroke="rgb(0,0,0)" />
<line x1="100" y1="164.644" x2="96" y2="164.644" stroke="rgb(0,0,0)" />
<line x1="100" y1="157.883" x2="96" y2="157.883" stroke="rgb(0,0,0)" />
<line x1="100" y1="151.122" x2="96" y2="151.122" stroke="rgb(0,0,0)" />
<text x="35" y="152" fill="rgb(0,0,0)">
24000</text>
<line x1="100" y1="144.362" x2="92" y2="144.362" stroke="rgb(0,0,0)" />
<line x1="100" y1="137.601" x2="96" y2="137.601" stroke="rgb(0,0,0)" />
<line x1="100" y1="130.84" x2="96" y2="130.84" stroke="rgb(0,0,0)" />
<line x1="100" y1="124.08" x2="96" y2="124.08" stroke="rgb(0,0,0)" />
<line x1="100" y1="117.319" x2="96" y2="117.319" stroke="rgb(0,0,0)" />
<text x="35" y="118" fill="rgb(0,0,0)">
26000</text>
<line x1="100" y1="110.558" x2="92" y2="110.558" stroke="rgb(0,0,0)" />
<line x1="100" y1="103.798" x2="96" y2="103.798" stroke="rgb(0,0,0)" />
<line x1="100" y1="97.0371" x2="96" y2="97.0371" stroke="rgb(0,0,0)" />
<line x1="100" y1="90.2765" x2="96" y2="90.2765" stroke="rgb(0,0,0)" />
<line x1="100" y1="83.5159" x2="96" y2="83.5159" stroke="rgb(0,0,0)" />
<text x="35" y="84" fill="rgb(0,0,0)">
28000</text>
<line x1="100" y1="76.7552" x2="92" y2="76.7552" stroke="rgb(0,0,0)" />
<line x1="100" y1="69.9946" x2="96" y2="69.9946" stroke="rgb(0,0,0)" />
<line x1="100" y1="63.2339" x2="96" y2="63.2339" stroke="rgb(0,0,0)" />
<line x1="100" y1="56.4733" x2="96" y2="56.4733" stroke="rgb(0,0,0)" />
<text x="35" y="367" transform="rotate(-90,35,367)">Time (nanoseconds)</text>
<text x="120" y="66" fill="rgb(200,0,100)">
Linear Search</text>
<text x="120" y="98" fill="rgb(100,20,220)">
Binary Search (w/ Sort Amortized)</text>
<clipPath>
<rect x="100" y="50" width="650" height="500" fill="rgb(0,0,0)" />
</clipPath>
<line x1="100" y1="538.135" x2="110.317" y2="523.498" stroke="rgb(200,0,100)" />
<line x1="110.317" y1="523.498" x2="130.952" y2="509.284" stroke="rgb(200,0,100)" />
<line x1="130.952" y1="509.284" x2="172.222" y2="472.405" stroke="rgb(200,0,100)" />
<line x1="172.222" y1="472.405" x2="254.762" y2="401.587" stroke="rgb(200,0,100)" />
<line x1="254.762" y1="401.587" x2="419.841" y2="262.318" stroke="rgb(200,0,100)" />
<line x1="419.841" y1="262.318" x2="750" y2="50" stroke="rgb(200,0,100)" />
<line x1="100" y1="550" x2="110.317" y2="550" stroke="rgb(100,20,220)" />
<line x1="110.317" y1="550" x2="130.952" y2="550" stroke="rgb(100,20,220)" />
<line x1="130.952" y1="550" x2="172.222" y2="550" stroke="rgb(100,20,220)" />
<line x1="172.222" y1="550" x2="254.762" y2="550" stroke="rgb(100,20,220)" />
<line x1="254.762" y1="550" x2="419.841" y2="550" stroke="rgb(100,20,220)" />
<line x1="419.841" y1="550" x2="750" y2="550" stroke="rgb(100,20,220)" />
</svg>

