<?xml version="1.0" encoding="utf-8"?>
<svg version="1.1" baseProfile="full" width="800" height="600" xmlns="http://www.w3.org/2000/svg">
<clipPath>
<rect x="0" y="0" width="800" height="600" fill="rgb(0,0,0)" />
</clipPath>
<text x="271" y="34" fill="rgb(0,0,0)">
Number of Elements Searched Versus Time</text>
<line x1="100" y1="50" x2="100" y2="550" stroke="rgb(200,200,200)" />
<line x1="192.857" y1="50" x2="192.857" y2="550" stroke="rgb(200,200,200)" />
<line x1="285.714" y1="50" x2="285.714" y2="550" stroke="rgb(200,200,200)" />
<line x1="378.571" y1="50" x2="378.571" y2="550" stroke="rgb(200,200,200)" />
<line x1="471.429" y1="50" x2="471.429" y2="550" stroke="rgb(200,200,200)" />
<line x1="564.286" y1="50" x2="564.286" y2="550" stroke="rgb(200,200,200)" />
<line x1="657.143" y1="50" x2="657.143" y2="550" stroke="rgb(200,200,200)" />
<line x1="750" y1="50" x2="750" y2="550" stroke="rgb(200,200,200)" />
<line x1="100" y1="550" x2="750" y2="550" stroke="rgb(200,200,200)" />
<line x1="100" y1="519.808" x2="750" y2="519.808" stroke="rgb(200,200,200)" />
<line x1="100" y1="489.616" x2="750" y2="489.616" stroke="rgb(200,200,200)" />
<line x1="100" y1="459.424" x2="750" y2="459.424" stroke="rgb(200,200,200)" />
<line x1="100" y1="429.231" x2="750" y2="429.231" stroke="rgb(200,200,200)" />
<line x1="100" y1="399.039" x2="750" y2="399.039" stroke="rgb(200,200,200)" />
<line x1="100" y1="368.847" x2="750" y2="368.847" stroke="rgb(200,200,200)" />
<line x1="100" y1="338.655" x2="750" y2="338.655" stroke="rgb(200,200,200)" />
<line x1="100" y1="308.463" x2="750" y2="308.463" stroke="rgb(200,200,200)" />
<line x1="100" y1="278.271" x2="750" y2="278.271" stroke="rgb(200,200,200)" />
<line x1="100" y1="248.079" x2="750" y2="248.079" stroke="rgb(200,200,200)" />
<line x1="100" y1="217.886" x2="750" y2="217.886" stroke="rgb(200,200,200)" />
<line x1="100" y1="187.694" x2="750" y2="187.694" stroke="rgb(200,200,200)" />
<line x1="100" y1="157.502" x2="750" y2="157.502" stroke="rgb(200,200,200)" />
<line x1="100" y1="127.31" x2="750" y2="127.31" stroke="rgb(200,200,200)" />
<line x1="100" y1="97.1179" x2="750" y2="97.1179" stroke="rgb(200,200,200)" />
<line x1="100" y1="66.9257" x2="750" y2="66.9257" stroke="rgb(200,200,200)" />
<line x1="100" y1="550" x2="750" y2="550" stroke="rgb(0,0,0)" />
<text x="100" y="578" fill="rgb(0,0,0)">
1000</text>
<line x1="100" y1="550" x2="100" y2="558" stroke="rgb(0,0,0)" />
<line x1="118.571" y1="550" x2="118.571" y2="554" stroke="rgb(0,0,0)" />
<line x1="137.143" y1="550" x2="137.143" y2="554" stroke="rgb(0,0,0)" />
<line x1="155.714" y1="550" x2="155.714" y2="554" stroke="rgb(0,0,0)" />
<line x1="174.286" y1="550" x2="174.286" y2="554" stroke="rgb(0,0,0)" />
<text x="192" y="578" fill="rgb(0,0,0)">
2000</text>
<line x1="192.857" y1="550" x2="192.857" y2="558" stroke="rgb(0,0,0)" />
<line x1="211.429" y1="550" x2="211.429" y2="554" stroke="rgb(0,0,0)" />
<line x1="230" y1="550" x2="230" y2="554" stroke="rgb(0,0,0)" />
<line x1="248.571" y1="550" x2="248.571" y2="554" stroke="rgb(0,0,0)" />
<line x1="267.143" y1="550" x2="267.143" y2="554" stroke="rgb(0,0,0)" />
<text x="285" y="578" fill="rgb(0,0,0)">
3000</text>
<line x1="285.714" y1="550" x2="285.714" y2="558" stroke="rgb(0,0,0)" />
<line x1="304.286" y1="550" x2="304.286" y2="554" stroke="rgb(0,0,0)" />
<line x1="322.857" y1="550" x2="322.857" y2="554" stroke="rgb(0,0,0)" />
<line x1="341.429" y1="550" x2="341.429" y2="554" stroke="rgb(0,0,0)" />
<line x1="360" y1="550" x2="360" y2="554" stroke="rgb(0,0,0)" />
<text x="378" y="578" fill="rgb(0,0,0)">
4000</text>
<line x1="378.571" y1="550" x2="378.571" y2="558" stroke="rgb(0,0,0)" />
<line x1="397.143" y1="550" x2="397.143" y2="554" stroke="rgb(0,0,0)" />
<line x1="415.714" y1="550" x2="415.714" y2="554" stroke="rgb(0,0,0)" />
<line x1="434.286" y1="550" x2="434.286" y2="554" stroke="rgb(0,0,0)" />
<line x1="452.857" y1="550" x2="452.857" y2="554" stroke="rgb(0,0,0)" />
<text x="471" y="578" fill="rgb(0,0,0)">
5000</text>
<line x1="471.429" y1="550" x2="471.429" y2="558" stroke="rgb(0,0,0)" />
<line x1="490" y1="550" x2="490" y2="554" stroke="rgb(0,0,0)" />
<line x1="508.571" y1="550" x2="508.571" y2="554" stroke="rgb(0,0,0)" />
<line x1="527.143" y1="550" x2="527.143" y2="554" stroke="rgb(0,0,0)" />
<line x1="545.714" y1="550" x2="545.714" y2="554" stroke="rgb(0,0,0)" />
<text x="564" y="578" fill="rgb(0,0,0)">
6000</text>
<line x1="564.286" y1="550" x2="564.286" y2="558" stroke="rgb(0,0,0)" />
<line x1="582.857" y1="550" x2="582.857" y2="554" stroke="rgb(0,0,0)" />
<line x1="601.429" y1="550" x2="601.429" y2="554" stroke="rgb(0,0,0)" />
<line x1="620" y1="550" x2="620" y2="554" stroke="rgb(0,0,0)" />
<line x1="638.571" y1="550" x2="638.571" y2="554" stroke="rgb(0,0,0)" />
<text x="657" y="578" fill="rgb(0,0,0)">
7000</text>
<line x1="657.143" y1="550" x2="657.143" y2="558" stroke="rgb(0,0,0)" />
<line x1="675.714" y1="550" x2="675.714" y2="554" stroke="rgb(0,0,0)" />
<line x1="694.286" y1="550" x2="694.286" y2="554" stroke="rgb(0,0,0)" />
<line x1="712.857" y1="550" x2="712.857" y2="554" stroke="rgb(0,0,0)" />
<line x1="731.429" y1="550" x2="731.429" y2="554" stroke="rgb(0,0,0)" />
<text x="750" y="578" fill="rgb(0,0,0)">
8000</text>
<line x1="750" y1="550" x2="750" y2="558" stroke="rgb(0,0,0)" />
<text x="409" y="594" fill="rgb(0,0,0)">
N</text>
<line x1="100" y1="50" x2="100" y2="550" stroke="rgb(0,0,0)" />
<text x="58" y="558" fill="rgb(0,0,0)">
0</text>
<line x1="100" y1="550" x2="92" y2="550" stroke="rgb(0,0,0)" />
<line x1="100" y1="543.962" x2="96" y2="543.962" stroke="rgb(0,0,0)" />
<line x1="100" y1="537.923" x2="96" y2="537.923" stroke="rgb(0,0,0)" />
<line x1="100" y1="531.885" x2="96" y2="531.885" stroke="rgb(0,0,0)" />
<line x1="100" y1="525.846" x2="96" y2="525.846" stroke="rgb(0,0,0)" />
<text x="40" y="527" fill="rgb(0,0,0)">
5000</text>
<line x1="100" y1="519.808" x2="92" y2="519.808" stroke="rgb(0,0,0)" />
<line x1="100" y1="513.769" x2="96" y2="513.769" stroke="rgb(0,0,0)" />
<line x1="100" y1="507.731" x2="96" y2="507.731" stroke="rgb(0,0,0)" />
<line x1="100" y1="501.693" x2="96" y2="501.693" stroke="rgb(0,0,0)" />
<line x1="100" y1="495.654" x2="96" y2="495.654" stroke="rgb(0,0,0)" />
<text x="36" y="497" fill="rgb(0,0,0)">
10000</text>
<line x1="100" y1="489.616" x2="92" y2="489.616" stroke="rgb(0,0,0)" />
<line x1="100" y1="483.577" x2="96" y2="483.577" stroke="rgb(0,0,0)" />
<line x1="100" y1="477.539" x2="96" y2="477.539" stroke="rgb(0,0,0)" />
<line x1="100" y1="471.5" x2="96" y2="471.5" stroke="rgb(0,0,0)" />
<line x1="100" y1="465.462" x2="96" y2="465.462" stroke="rgb(0,0,0)" />
<text x="36" y="467" fill="rgb(0,0,0)">
15000</text>
<line x1="100" y1="459.424" x2="92" y2="459.424" stroke="rgb(0,0,0)" />
<line x1="100" y1="453.385" x2="96" y2="453.385" stroke="rgb(0,0,0)" />
<line x1="100" y1="447.347" x2="96" y2="447.347" stroke="rgb(0,0,0)" />
<line x1="100" y1="441.308" x2="96" y2="441.308" stroke="rgb(0,0,0)" />
<line x1="100" y1="435.27" x2="96" y2="435.27" stroke="rgb(0,0,0)" />
<text x="35" y="437" fill="rgb(0,0,0)">
20000</text>
<line x1="100" y1="429.231" x2="92" y2="429.231" stroke="rgb(0,0,0)" />
<line x1="100" y1="423.193" x2="96" y2="423.193" stroke="rgb(0,0,0)" />
<line x1="100" y1="417.155" x2="96" y2="417.155" stroke="rgb(0,0,0)" />
<line x1="100" y1="411.116" x2="96" y2="411.116" stroke="rgb(0,0,0)" />
<line x1="100" y1="405.078" x2="96" y2="405.078" stroke="rgb(0,0,0)" />
<text x="35" y="407" fill="rgb(0,0,0)">
25000</text>
<line x1="100" y1="399.039" x2="92" y2="399.039" stroke="rgb(0,0,0)" />
<line x1="100" y1="393.001" x2="96" y2="393.001" stroke="rgb(0,0,0)" />
<line x1="100" y1="386.962" x2="96" y2="386.962" stroke="rgb(0,0,0)" />
<line x1="100" y1="380.924" x2="96" y2="380.924" stroke="rgb(0,0,0)" />
<line x1="100" y1="374.886" x2="96" y2="374.886" stroke="rgb(0,0,0)" />
<text x="35" y="376" fill="rgb(0,0,0)">
30000</text>
<line x1="100" y1="368.847" x2="92" y2="368.847" stroke="rgb(0,0,0)" />
<line x1="100" y1="362.809" x2="96" y2="362.809" stroke="rgb(0,0,0)" />
<line x1="100" y1="356.77" x2="96" y2="356.77" stroke="rgb(0,0,0)" />
<line x1="100" y1="350.732" x2="96" y2="350.732" stroke="rgb(0,0,0)" />
<line x1="100" y1="344.693" x2="96" y2="344.693" stroke="rgb(0,0,0)" />
<text x="35" y="346" fill="rgb(0,0,0)">
35000</text>
<line x1="100" y1="338.655" x2="92" y2="338.655" stroke="rgb(0,0,0)" />
<line x1="100" y1="332.617" x2="96" y2="332.617" stroke="rgb(0,0,0)" />
<line x1="100" y1="326.578" x2="96" y2="326.578" stroke="rgb(0,0,0)" />
<line x1="100" y1="320.54" x2="96" y2="320.54" stroke="rgb(0,0,0)" />
<line x1="100" y1="314.501" x2="96" y2="314.501" stroke="rgb(0,0,0)" />
<text x="35" y="316" fill="rgb(0,0,0)">
40000</text>
<line x1="100" y1="308.463" x2="92" y2="308.463" stroke="rgb(0,0,0)" />
<line x1="100" y1="302.424" x2="96" y2="302.424" stroke="rgb(0,0,0)" />
<line x1="100" y1="296.386" x2="96" y2="296.386" stroke="rgb(0,0,0)" />
<line x1="100" y1="290.348" x2="96" y2="290.348" stroke="rgb(0,0,0)" />
<line x1="100" y1="284.309" x2="96" y2="284.309" stroke="rgb(0,0,0)" />
<text x="35" y="286" fill="rgb(0,0,0)">
45000</text>
<line x1="100" y1="278.271" x2="92" y2="278.271" stroke="rgb(0,0,0)" />
<line x1="100" y1="272.232" x2="96" y2="272.232" stroke="rgb(0,0,0)" />
<line x1="100" y1="266.194" x2="96" y2="266.194" stroke="rgb(0,0,0)" />
<line x1="100" y1="260.155" x2="96" y2="260.155" stroke="rgb(0,0,0)" />
<line x1="100" y1="254.117" x2="96" y2="254.117" stroke="rgb(0,0,0)" />
<text x="35" y="256" fill="rgb(0,0,0)">
50000</text>
<line x1="100" y1="248.079" x2="92" y2="248.079" stroke="rgb(0,0,0)" />
<line x1="100" y1="242.04" x2="96" y2="242.04" stroke="rgb(0,0,0)" />
<line x1="100" y1="236.002" x2="96" y2="236.002" stroke="rgb(0,0,0)" />
<line x1="100" y1="229.963" x2="96" y2="229.963" stroke="rgb(0,0,0)" />
<line x1="100" y1="223.925" x2="96" y2="223.925" stroke="rgb(0,0,0)" />
<text x="35" y="225" fill="rgb(0,0,0)">
55000</text>
<line x1="100" y1="217.886" x2="92" y2="217.886" stroke="rgb(0,0,0)" />
<line x1="100" y1="211.848" x2="96" y2="211.848" stroke="rgb(0,0,0)" />
<line x1="100" y1="205.81" x2="96" y2="205.81" stroke="rgb(0,0,0)" />
<line x1="100" y1="199.771" x2="96" y2="199.771" stroke="rgb(0,0,0)" />
<line x1="100" y1="193.733" x2="96" y2="193.733" stroke="rgb(0,0,0)" />
<text x="35" y="195" fill="rgb(0,0,0)">
60000</text>
<line x1="100" y1="187.694" x2="92" y2="187.694" stroke="rgb(0,0,0)" />
<line x1="100" y1="181.656" x2="96" y2="181.656" stroke="rgb(0,0,0)" />
<line x1="100" y1="175.617" x2="96" y2="175.617" stroke="rgb(0,0,0)" />
<line x1="100" y1="169.579" x2="96" y2="169.579" stroke="rgb(0,0,0)" />
<line x1="100" y1="163.541" x2="96" y2="163.541" stroke="rgb(0,0,0)" />
<text x="35" y="165" fill="rgb(0,0,0)">
65000</text>
<line x1="100" y1="157.502" x2="92" y2="157.502" stroke="rgb(0,0,0)" />
<line x1="100" y1="151.464" x2="96" y2="151.464" stroke="rgb(0,0,0)" />
<line x1="100" y1="145.425" x2="96" y2="145.425" stroke="rgb(0,0,0)" />
<line x1="100" y1="139.387" x2="96" y2="139.387" stroke="rgb(0,0,0)" />
<line x1="100" y1="133.348" x2="96" y2="133.348" stroke="rgb(0,0,0)" />
<text x="35" y="135" fill="rgb(0,0,0)">
70000</text>
<line x1="100" y1="127.31" x2="92" y2="127.31" stroke="rgb(0,0,0)" />
<line x1="100" y1="121.272" x2="96" y2="121.272" stroke="rgb(0,0,0)" />
<line x1="100" y1="115.233" x2="96" y2="115.233" stroke="rgb(0,0,0)" />
<line x1="100" y1="109.195" x2="96" y2="109.195" stroke="rgb(0,0,0)" />
<line x1="100" y1="103.156" x2="96" y2="103.156" stroke="rgb(0,0,0)" />
<text x="35" y="105" fill="rgb(0,0,0)">
75000</text>
<line x1="100" y1="97.1179" x2="92" y2="97.1179" stroke="rgb(0,0,0)" />
<line x1="100" y1="91.0794" x2="96" y2="91.0794" stroke="rgb(0,0,0)" />
<line x1="100" y1="85.041" x2="96" y2="85.041" stroke="rgb(0,0,0)" />
<line x1="100" y1="79.0026" x2="96" y2="79.0026" stroke="rgb(0,0,0)" />
<line x1="100" y1="72.9641" x2="96" y2="72.9641" stroke="rgb(0,0,0)" />
<text x="35" y="74" fill="rgb(0,0,0)">
80000</text>
<line x1="100" y1="66.9257" x2="92" y2="66.9257" stroke="rgb(0,0,0)" />
<line x1="100" y1="60.8873" x2="96" y2="60.8873" stroke="rgb(0,0,0)" />
<line x1="100" y1="54.8488" x2="96" y2="54.8488" stroke="rgb(0,0,0)" />
<text x="35" y="367" transform="rotate(-90,35,367)">Time (nanoseconds)</text>
<text x="120" y="66" fill="rgb(200,0,100)">
Linked List</text>
<text x="120" y="98" fill="rgb(100,20,220)">
Dynamic Array</text>
<clipPath>
<rect x="100" y="50" width="650" height="500" fill="rgb(0,0,0)" />
</clipPath>
<line x1="100" y1="486.488" x2="192.857" y2="413.598" stroke="rgb(200,0,100)" />
<line x1="192.857" y1="413.598" x2="378.571" y2="280.3" stroke="rgb(200,0,100)" />
<line x1="378.571" y1="280.3" x2="750" y2="50" stroke="rgb(200,0,100)" />
<line x1="100" y1="516.74" x2="192.857" y2="483.384" stroke="rgb(100,20,220)" />
<line x1="192.857" y1="483.384" x2="378.571" y2="434.388" stroke="rgb(100,20,220)" />
<line x1="378.571" y1="434.388" x2="750" y2="325.684" stroke="rgb(100,20,220)" />
</svg>

