<?xml version="1.0" encoding="utf-8"?>
<svg version="1.1" baseProfile="full" width="800" height="600" xmlns="http://www.w3.org/2000/svg">
<clipPath>
<rect x="0" y="0" width="800" height="600" fill="rgb(0,0,0)" />
</clipPath>
<text x="271" y="34" fill="rgb(0,0,0)">
Number of Elements Searched Versus Time</text>
<line x1="100" y1="50" x2="100" y2="550" stroke="rgb(200,200,200)" />
<line x1="192.857" y1="50" x2="192.857" y2="550" stroke="rgb(200,200,200)" />
<line x1="285.714" y1="50" x2="285.714" y2="550" stroke="rgb(200,200,200)" />
<line x1="378.571" y1="50" x2="378.571" y2="550" stroke="rgb(200,200,200)" />
<line x1="471.429" y1="50" x2="471.429" y2="550" stroke="rgb(200,200,200)" />
<line x1="564.286" y1="50" x2="564.286" y2="550" stroke="rgb(200,200,200)" />
<line x1="657.143" y1="50" x2="657.143" y2="550" stroke="rgb(200,200,200)" />
<line x1="750" y1="50" x2="750" y2="550" stroke="rgb(200,200,200)" />
<line x1="100" y1="550" x2="750" y2="550" stroke="rgb(200,200,200)" />
<line x1="100" y1="503.374" x2="750" y2="503.374" stroke="rgb(200,200,200)" />
<line x1="100" y1="456.748" x2="750" y2="456.748" stroke="rgb(200,200,200)" />
<line x1="100" y1="410.122" x2="750" y2="410.122" stroke="rgb(200,200,200)" />
<line x1="100" y1="363.495" x2="750" y2="363.495" stroke="rgb(200,200,200)" />
<line x1="100" y1="316.869" x2="750" y2="316.869" stroke="rgb(200,200,200)" />
<line x1="100" y1="270.243" x2="750" y2="270.243" stroke="rgb(200,200,200)" />
<line x1="100" y1="223.617" x2="750" y2="223.617" stroke="rgb(200,200,200)" />
<line x1="100" y1="176.991" x2="750" y2="176.991" stroke="rgb(200,200,200)" />
<line x1="100" y1="130.365" x2="750" y2="130.365" stroke="rgb(200,200,200)" />
<line x1="100" y1="83.7386" x2="750" y2="83.7386" stroke="rgb(200,200,200)" />
<line x1="100" y1="550" x2="750" y2="550" stroke="rgb(0,0,0)" />
<text x="100" y="578" fill="rgb(0,0,0)">
1000</text>
<line x1="100" y1="550" x2="100" y2="558" stroke="rgb(0,0,0)" />
<line x1="118.571" y1="550" x2="118.571" y2="554" stroke="rgb(0,0,0)" />
<line x1="137.143" y1="550" x2="137.143" y2="554" stroke="rgb(0,0,0)" />
<line x1="155.714" y1="550" x2="155.714" y2="554" stroke="rgb(0,0,0)" />
<line x1="174.286" y1="550" x2="174.286" y2="554" stroke="rgb(0,0,0)" />
<text x="192" y="578" fill="rgb(0,0,0)">
2000</text>
<line x1="192.857" y1="550" x2="192.857" y2="558" stroke="rgb(0,0,0)" />
<line x1="211.429" y1="550" x2="211.429" y2="554" stroke="rgb(0,0,0)" />
<line x1="230" y1="550" x2="230" y2="554" stroke="rgb(0,0,0)" />
<line x1="248.571" y1="550" x2="248.571" y2="554" stroke="rgb(0,0,0)" />
<line x1="267.143" y1="550" x2="267.143" y2="554" stroke="rgb(0,0,0)" />
<text x="285" y="578" fill="rgb(0,0,0)">
3000</text>
<line x1="285.714" y1="550" x2="285.714" y2="558" stroke="rgb(0,0,0)" />
<line x1="304.286" y1="550" x2="304.286" y2="554" stroke="rgb(0,0,0)" />
<line x1="322.857" y1="550" x2="322.857" y2="554" stroke="rgb(0,0,0)" />
<line x1="341.429" y1="550" x2="341.429" y2="554" stroke="rgb(0,0,0)" />
<line x1="360" y1="550" x2="360" y2="554" stroke="rgb(0,0,0)" />
<text x="378" y="578" fill="rgb(0,0,0)">
4000</text>
<line x1="378.571" y1="550" x2="378.571" y2="558" stroke="rgb(0,0,0)" />
<line x1="397.143" y1="550" x2="397.143" y2="554" stroke="rgb(0,0,0)" />
<line x1="415.714" y1="550" x2="415.714" y2="554" stroke="rgb(0,0,0)" />
<line x1="434.286" y1="550" x2="434.286" y2="554" stroke="rgb(0,0,0)" />
<line x1="452.857" y1="550" x2="452.857" y2="554" stroke="rgb(0,0,0)" />
<text x="471" y="578" fill="rgb(0,0,0)">
5000</text>
<line x1="471.429" y1="550" x2="471.429" y2="558" stroke="rgb(0,0,0)" />
<line x1="490" y1="550" x2="490" y2="554" stroke="rgb(0,0,0)" />
<line x1="508.571" y1="550" x2="508.571" y2="554" stroke="rgb(0,0,0)" />
<line x1="527.143" y1="550" x2="527.143" y2="554" stroke="rgb(0,0,0)" />
<line x1="545.714" y1="550" x2="545.714" y2="554" stroke="rgb(0,0,0)" />
<text x="564" y="578" fill="rgb(0,0,0)">
6000</text>
<line x1="564.286" y1="550" x2="564.286" y2="558" stroke="rgb(0,0,0)" />
<line x1="582.857" y1="550" x2="582.857" y2="554" stroke="rgb(0,0,0)" />
<line x1="601.429" y1="550" x2="601.429" y2="554" stroke="rgb(0,0,0)" />
<line x1="620" y1="550" x2="620" y2="554" stroke="rgb(0,0,0)" />
<line x1="638.571" y1="550" x2="638.571" y2="554" stroke="rgb(0,0,0)" />
<text x="657" y="578" fill="rgb(0,0,0)">
7000</text>
<line x1="657.143" y1="550" x2="657.143" y2="558" stroke="rgb(0,0,0)" />
<line x1="675.714" y1="550" x2="675.714" y2="554" stroke="rgb(0,0,0)" />
<line x1="694.286" y1="550" x2="694.286" y2="554" stroke="rgb(0,0,0)" />
<line x1="712.857" y1="550" x2="712.857" y2="554" stroke="rgb(0,0,0)" />
<line x1="731.429" y1="550" x2="731.429" y2="554" stroke="rgb(0,0,0)" />
<text x="750" y="578" fill="rgb(0,0,0)">
8000</text>
<line x1="750" y1="550" x2="750" y2="558" stroke="rgb(0,0,0)" />
<text x="409" y="594" fill="rgb(0,0,0)">
N</text>
<line x1="100" y1="50" x2="100" y2="550" stroke="rgb(0,0,0)" />
<text x="58" y="558" fill="rgb(0,0,0)">
0</text>
<line x1="100" y1="550" x2="92" y2="550" stroke="rgb(0,0,0)" />
<line x1="100" y1="540.675" x2="96" y2="540.675" stroke="rgb(0,0,0)" />
<line x1="100" y1="531.35" x2="96" y2="531.35" stroke="rgb(0,0,0)" />
<line x1="100" y1="522.024" x2="96" y2="522.024" stroke="rgb(0,0,0)" />
<line x1="100" y1="512.699" x2="96" y2="512.699" stroke="rgb(0,0,0)" />
<text x="40" y="511" fill="rgb(0,0,0)">
5000</text>
<line x1="100" y1="503.374" x2="92" y2="503.374" stroke="rgb(0,0,0)" />
<line x1="100" y1="494.049" x2="96" y2="494.049" stroke="rgb(0,0,0)" />
<line x1="100" y1="484.723" x2="96" y2="484.723" stroke="rgb(0,0,0)" />
<line x1="100" y1="475.398" x2="96" y2="475.398" stroke="rgb(0,0,0)" />
<line x1="100" y1="466.073" x2="96" y2="466.073" stroke="rgb(0,0,0)" />
<text x="36" y="464" fill="rgb(0,0,0)">
10000</text>
<line x1="100" y1="456.748" x2="92" y2="456.748" stroke="rgb(0,0,0)" />
<line x1="100" y1="447.423" x2="96" y2="447.423" stroke="rgb(0,0,0)" />
<line x1="100" y1="438.097" x2="96" y2="438.097" stroke="rgb(0,0,0)" />
<line x1="100" y1="428.772" x2="96" y2="428.772" stroke="rgb(0,0,0)" />
<line x1="100" y1="419.447" x2="96" y2="419.447" stroke="rgb(0,0,0)" />
<text x="36" y="418" fill="rgb(0,0,0)">
15000</text>
<line x1="100" y1="410.122" x2="92" y2="410.122" stroke="rgb(0,0,0)" />
<line x1="100" y1="400.796" x2="96" y2="400.796" stroke="rgb(0,0,0)" />
<line x1="100" y1="391.471" x2="96" y2="391.471" stroke="rgb(0,0,0)" />
<line x1="100" y1="382.146" x2="96" y2="382.146" stroke="rgb(0,0,0)" />
<line x1="100" y1="372.821" x2="96" y2="372.821" stroke="rgb(0,0,0)" />
<text x="35" y="371" fill="rgb(0,0,0)">
20000</text>
<line x1="100" y1="363.495" x2="92" y2="363.495" stroke="rgb(0,0,0)" />
<line x1="100" y1="354.17" x2="96" y2="354.17" stroke="rgb(0,0,0)" />
<line x1="100" y1="344.845" x2="96" y2="344.845" stroke="rgb(0,0,0)" />
<line x1="100" y1="335.52" x2="96" y2="335.52" stroke="rgb(0,0,0)" />
<line x1="100" y1="326.195" x2="96" y2="326.195" stroke="rgb(0,0,0)" />
<text x="35" y="324" fill="rgb(0,0,0)">
25000</text>
<line x1="100" y1="316.869" x2="92" y2="316.869" stroke="rgb(0,0,0)" />
<line x1="100" y1="307.544" x2="96" y2="307.544" stroke="rgb(0,0,0)" />
<line x1="100" y1="298.219" x2="96" y2="298.219" stroke="rgb(0,0,0)" />
<line x1="100" y1="288.894" x2="96" y2="288.894" stroke="rgb(0,0,0)" />
<line x1="100" y1="279.568" x2="96" y2="279.568" stroke="rgb(0,0,0)" />
<text x="35" y="278" fill="rgb(0,0,0)">
30000</text>
<line x1="100" y1="270.243" x2="92" y2="270.243" stroke="rgb(0,0,0)" />
<line x1="100" y1="260.918" x2="96" y2="260.918" stroke="rgb(0,0,0)" />
<line x1="100" y1="251.593" x2="96" y2="251.593" stroke="rgb(0,0,0)" />
<line x1="100" y1="242.268" x2="96" y2="242.268" stroke="rgb(0,0,0)" />
<line x1="100" y1="232.942" x2="96" y2="232.942" stroke="rgb(0,0,0)" />
<text x="35" y="231" fill="rgb(0,0,0)">
35000</text>
<line x1="100" y1="223.617" x2="92" y2="223.617" stroke="rgb(0,0,0)" />
<line x1="100" y1="214.292" x2="96" y2="214.292" stroke="rgb(0,0,0)" />
<line x1="100" y1="204.967" x2="96" y2="204.967" stroke="rgb(0,0,0)" />
<line x1="100" y1="195.641" x2="96" y2="195.641" stroke="rgb(0,0,0)" />
<line x1="100" y1="186.316" x2="96" y2="186.316" stroke="rgb(0,0,0)" />
<text x="35" y="184" fill="rgb(0,0,0)">
40000</text>
<line x1="100" y1="176.991" x2="92" y2="176.991" stroke="rgb(0,0,0)" />
<line x1="100" y1="167.666" x2="96" y2="167.666" stroke="rgb(0,0,0)" />
<line x1="100" y1="158.34" x2="96" y2="158.34" stroke="rgb(0,0,0)" />
<line x1="100" y1="149.015" x2="96" y2="149.015" stroke="rgb(0,0,0)" />
<line x1="100" y1="139.69" x2="96" y2="139.69" stroke="rgb(0,0,0)" />
<text x="35" y="138" fill="rgb(0,0,0)">
45000</text>
<line x1="100" y1="130.365" x2="92" y2="130.365" stroke="rgb(0,0,0)" />
<line x1="100" y1="121.04" x2="96" y2="121.04" stroke="rgb(0,0,0)" />
<line x1="100" y1="111.714" x2="96" y2="111.714" stroke="rgb(0,0,0)" />
<line x1="100" y1="102.389" x2="96" y2="102.389" stroke="rgb(0,0,0)" />
<line x1="100" y1="93.0639" x2="96" y2="93.0639" stroke="rgb(0,0,0)" />
<text x="35" y="91" fill="rgb(0,0,0)">
50000</text>
<line x1="100" y1="83.7386" x2="92" y2="83.7386" stroke="rgb(0,0,0)" />
<line x1="100" y1="74.4134" x2="96" y2="74.4134" stroke="rgb(0,0,0)" />
<line x1="100" y1="65.0882" x2="96" y2="65.0882" stroke="rgb(0,0,0)" />
<line x1="100" y1="55.763" x2="96" y2="55.763" stroke="rgb(0,0,0)" />
<text x="35" y="367" transform="rotate(-90,35,367)">Time (nanoseconds)</text>
<text x="120" y="66" fill="rgb(200,0,100)">
Linked List</text>
<text x="120" y="98" fill="rgb(100,20,220)">
Dynamic Array</text>
<clipPath>
<rect x="100" y="50" width="650" height="500" fill="rgb(0,0,0)" />
</clipPath>
<line x1="100" y1="430.553" x2="192.857" y2="378.77" stroke="rgb(200,0,100)" />
<line x1="192.857" y1="378.77" x2="378.571" y2="283.373" stroke="rgb(200,0,100)" />
<line x1="378.571" y1="283.373" x2="750" y2="50" stroke="rgb(200,0,100)" />
<line x1="100" y1="509.883" x2="192.857" y2="485.917" stroke="rgb(100,20,220)" />
<line x1="192.857" y1="485.917" x2="378.571" y2="429.509" stroke="rgb(100,20,220)" />
<line x1="378.571" y1="429.509" x2="750" y2="324.283" stroke="rgb(100,20,220)" />
</svg>

