<?xml version="1.0" encoding="utf-8"?>
<svg version="1.1" baseProfile="full" width="800" height="600" xmlns="http://www.w3.org/2000/svg">
<clipPath>
<rect x="0" y="0" width="800" height="600" fill="rgb(0,0,0)" />
</clipPath>
<text x="279" y="34" fill="rgb(0,0,0)">
Number of Elements Sorted Versus Time</text>
<line x1="158.858" y1="50" x2="158.858" y2="550" stroke="rgb(200,200,200)" />
<line x1="222.835" y1="50" x2="222.835" y2="550" stroke="rgb(200,200,200)" />
<line x1="286.811" y1="50" x2="286.811" y2="550" stroke="rgb(200,200,200)" />
<line x1="350.787" y1="50" x2="350.787" y2="550" stroke="rgb(200,200,200)" />
<line x1="414.764" y1="50" x2="414.764" y2="550" stroke="rgb(200,200,200)" />
<line x1="478.74" y1="50" x2="478.74" y2="550" stroke="rgb(200,200,200)" />
<line x1="542.717" y1="50" x2="542.717" y2="550" stroke="rgb(200,200,200)" />
<line x1="606.693" y1="50" x2="606.693" y2="550" stroke="rgb(200,200,200)" />
<line x1="670.669" y1="50" x2="670.669" y2="550" stroke="rgb(200,200,200)" />
<line x1="734.646" y1="50" x2="734.646" y2="550" stroke="rgb(200,200,200)" />
<line x1="100" y1="550" x2="750" y2="550" stroke="rgb(200,200,200)" />
<line x1="100" y1="527.453" x2="750" y2="527.453" stroke="rgb(200,200,200)" />
<line x1="100" y1="504.906" x2="750" y2="504.906" stroke="rgb(200,200,200)" />
<line x1="100" y1="482.359" x2="750" y2="482.359" stroke="rgb(200,200,200)" />
<line x1="100" y1="459.812" x2="750" y2="459.812" stroke="rgb(200,200,200)" />
<line x1="100" y1="437.266" x2="750" y2="437.266" stroke="rgb(200,200,200)" />
<line x1="100" y1="414.719" x2="750" y2="414.719" stroke="rgb(200,200,200)" />
<line x1="100" y1="392.172" x2="750" y2="392.172" stroke="rgb(200,200,200)" />
<line x1="100" y1="369.625" x2="750" y2="369.625" stroke="rgb(200,200,200)" />
<line x1="100" y1="347.078" x2="750" y2="347.078" stroke="rgb(200,200,200)" />
<line x1="100" y1="324.531" x2="750" y2="324.531" stroke="rgb(200,200,200)" />
<line x1="100" y1="301.984" x2="750" y2="301.984" stroke="rgb(200,200,200)" />
<line x1="100" y1="279.437" x2="750" y2="279.437" stroke="rgb(200,200,200)" />
<line x1="100" y1="256.89" x2="750" y2="256.89" stroke="rgb(200,200,200)" />
<line x1="100" y1="234.343" x2="750" y2="234.343" stroke="rgb(200,200,200)" />
<line x1="100" y1="211.797" x2="750" y2="211.797" stroke="rgb(200,200,200)" />
<line x1="100" y1="189.25" x2="750" y2="189.25" stroke="rgb(200,200,200)" />
<line x1="100" y1="166.703" x2="750" y2="166.703" stroke="rgb(200,200,200)" />
<line x1="100" y1="144.156" x2="750" y2="144.156" stroke="rgb(200,200,200)" />
<line x1="100" y1="121.609" x2="750" y2="121.609" stroke="rgb(200,200,200)" />
<line x1="100" y1="99.0621" x2="750" y2="99.0621" stroke="rgb(200,200,200)" />
<line x1="100" y1="76.5152" x2="750" y2="76.5152" stroke="rgb(200,200,200)" />
<line x1="100" y1="53.9683" x2="750" y2="53.9683" stroke="rgb(200,200,200)" />
<line x1="100" y1="550" x2="750" y2="550" stroke="rgb(0,0,0)" />
<line x1="107.677" y1="550" x2="107.677" y2="554" stroke="rgb(0,0,0)" />
<line x1="120.472" y1="550" x2="120.472" y2="554" stroke="rgb(0,0,0)" />
<line x1="133.268" y1="550" x2="133.268" y2="554" stroke="rgb(0,0,0)" />
<line x1="146.063" y1="550" x2="146.063" y2="554" stroke="rgb(0,0,0)" />
<text x="158" y="578" fill="rgb(0,0,0)">
200</text>
<line x1="158.858" y1="550" x2="158.858" y2="558" stroke="rgb(0,0,0)" />
<line x1="171.654" y1="550" x2="171.654" y2="554" stroke="rgb(0,0,0)" />
<line x1="184.449" y1="550" x2="184.449" y2="554" stroke="rgb(0,0,0)" />
<line x1="197.244" y1="550" x2="197.244" y2="554" stroke="rgb(0,0,0)" />
<line x1="210.039" y1="550" x2="210.039" y2="554" stroke="rgb(0,0,0)" />
<text x="222" y="578" fill="rgb(0,0,0)">
400</text>
<line x1="222.835" y1="550" x2="222.835" y2="558" stroke="rgb(0,0,0)" />
<line x1="235.63" y1="550" x2="235.63" y2="554" stroke="rgb(0,0,0)" />
<line x1="248.425" y1="550" x2="248.425" y2="554" stroke="rgb(0,0,0)" />
<line x1="261.22" y1="550" x2="261.22" y2="554" stroke="rgb(0,0,0)" />
<line x1="274.016" y1="550" x2="274.016" y2="554" stroke="rgb(0,0,0)" />
<text x="286" y="578" fill="rgb(0,0,0)">
600</text>
<line x1="286.811" y1="550" x2="286.811" y2="558" stroke="rgb(0,0,0)" />
<line x1="299.606" y1="550" x2="299.606" y2="554" stroke="rgb(0,0,0)" />
<line x1="312.402" y1="550" x2="312.402" y2="554" stroke="rgb(0,0,0)" />
<line x1="325.197" y1="550" x2="325.197" y2="554" stroke="rgb(0,0,0)" />
<line x1="337.992" y1="550" x2="337.992" y2="554" stroke="rgb(0,0,0)" />
<text x="350" y="578" fill="rgb(0,0,0)">
800</text>
<line x1="350.787" y1="550" x2="350.787" y2="558" stroke="rgb(0,0,0)" />
<line x1="363.583" y1="550" x2="363.583" y2="554" stroke="rgb(0,0,0)" />
<line x1="376.378" y1="550" x2="376.378" y2="554" stroke="rgb(0,0,0)" />
<line x1="389.173" y1="550" x2="389.173" y2="554" stroke="rgb(0,0,0)" />
<line x1="401.969" y1="550" x2="401.969" y2="554" stroke="rgb(0,0,0)" />
<text x="414" y="578" fill="rgb(0,0,0)">
1000</text>
<line x1="414.764" y1="550" x2="414.764" y2="558" stroke="rgb(0,0,0)" />
<line x1="427.559" y1="550" x2="427.559" y2="554" stroke="rgb(0,0,0)" />
<line x1="440.354" y1="550" x2="440.354" y2="554" stroke="rgb(0,0,0)" />
<line x1="453.15" y1="550" x2="453.15" y2="554" stroke="rgb(0,0,0)" />
<line x1="465.945" y1="550" x2="465.945" y2="554" stroke="rgb(0,0,0)" />
<text x="478" y="578" fill="rgb(0,0,0)">
1200</text>
<line x1="478.74" y1="550" x2="478.74" y2="558" stroke="rgb(0,0,0)" />
<line x1="491.535" y1="550" x2="491.535" y2="554" stroke="rgb(0,0,0)" />
<line x1="504.331" y1="550" x2="504.331" y2="554" stroke="rgb(0,0,0)" />
<line x1="517.126" y1="550" x2="517.126" y2="554" stroke="rgb(0,0,0)" />
<line x1="529.921" y1="550" x2="529.921" y2="554" stroke="rgb(0,0,0)" />
<text x="542" y="578" fill="rgb(0,0,0)">
1400</text>
<line x1="542.717" y1="550" x2="542.717" y2="558" stroke="rgb(0,0,0)" />
<line x1="555.512" y1="550" x2="555.512" y2="554" stroke="rgb(0,0,0)" />
<line x1="568.307" y1="550" x2="568.307" y2="554" stroke="rgb(0,0,0)" />
<line x1="581.102" y1="550" x2="581.102" y2="554" stroke="rgb(0,0,0)" />
<line x1="593.898" y1="550" x2="593.898" y2="554" stroke="rgb(0,0,0)" />
<text x="606" y="578" fill="rgb(0,0,0)">
1600</text>
<line x1="606.693" y1="550" x2="606.693" y2="558" stroke="rgb(0,0,0)" />
<line x1="619.488" y1="550" x2="619.488" y2="554" stroke="rgb(0,0,0)" />
<line x1="632.283" y1="550" x2="632.283" y2="554" stroke="rgb(0,0,0)" />
<line x1="645.079" y1="550" x2="645.079" y2="554" stroke="rgb(0,0,0)" />
<line x1="657.874" y1="550" x2="657.874" y2="554" stroke="rgb(0,0,0)" />
<text x="670" y="578" fill="rgb(0,0,0)">
1800</text>
<line x1="670.669" y1="550" x2="670.669" y2="558" stroke="rgb(0,0,0)" />
<line x1="683.465" y1="550" x2="683.465" y2="554" stroke="rgb(0,0,0)" />
<line x1="696.26" y1="550" x2="696.26" y2="554" stroke="rgb(0,0,0)" />
<line x1="709.055" y1="550" x2="709.055" y2="554" stroke="rgb(0,0,0)" />
<line x1="721.85" y1="550" x2="721.85" y2="554" stroke="rgb(0,0,0)" />
<text x="734" y="578" fill="rgb(0,0,0)">
2000</text>
<line x1="734.646" y1="550" x2="734.646" y2="558" stroke="rgb(0,0,0)" />
<line x1="747.441" y1="550" x2="747.441" y2="554" stroke="rgb(0,0,0)" />
<text x="409" y="594" fill="rgb(0,0,0)">
N</text>
<line x1="100" y1="50" x2="100" y2="550" stroke="rgb(0,0,0)" />
<text x="58" y="558" fill="rgb(0,0,0)">
0</text>
<line x1="100" y1="550" x2="92" y2="550" stroke="rgb(0,0,0)" />
<line x1="100" y1="545.491" x2="96" y2="545.491" stroke="rgb(0,0,0)" />
<line x1="100" y1="540.981" x2="96" y2="540.981" stroke="rgb(0,0,0)" />
<line x1="100" y1="536.472" x2="96" y2="536.472" stroke="rgb(0,0,0)" />
<line x1="100" y1="531.962" x2="96" y2="531.962" stroke="rgb(0,0,0)" />
<text x="40" y="535" fill="rgb(0,0,0)">
2000</text>
<line x1="100" y1="527.453" x2="92" y2="527.453" stroke="rgb(0,0,0)" />
<line x1="100" y1="522.944" x2="96" y2="522.944" stroke="rgb(0,0,0)" />
<line x1="100" y1="518.434" x2="96" y2="518.434" stroke="rgb(0,0,0)" />
<line x1="100" y1="513.925" x2="96" y2="513.925" stroke="rgb(0,0,0)" />
<line x1="100" y1="509.416" x2="96" y2="509.416" stroke="rgb(0,0,0)" />
<text x="40" y="512" fill="rgb(0,0,0)">
4000</text>
<line x1="100" y1="504.906" x2="92" y2="504.906" stroke="rgb(0,0,0)" />
<line x1="100" y1="500.397" x2="96" y2="500.397" stroke="rgb(0,0,0)" />
<line x1="100" y1="495.887" x2="96" y2="495.887" stroke="rgb(0,0,0)" />
<line x1="100" y1="491.378" x2="96" y2="491.378" stroke="rgb(0,0,0)" />
<line x1="100" y1="486.869" x2="96" y2="486.869" stroke="rgb(0,0,0)" />
<text x="40" y="490" fill="rgb(0,0,0)">
6000</text>
<line x1="100" y1="482.359" x2="92" y2="482.359" stroke="rgb(0,0,0)" />
<line x1="100" y1="477.85" x2="96" y2="477.85" stroke="rgb(0,0,0)" />
<line x1="100" y1="473.341" x2="96" y2="473.341" stroke="rgb(0,0,0)" />
<line x1="100" y1="468.831" x2="96" y2="468.831" stroke="rgb(0,0,0)" />
<line x1="100" y1="464.322" x2="96" y2="464.322" stroke="rgb(0,0,0)" />
<text x="40" y="467" fill="rgb(0,0,0)">
8000</text>
<line x1="100" y1="459.812" x2="92" y2="459.812" stroke="rgb(0,0,0)" />
<line x1="100" y1="455.303" x2="96" y2="455.303" stroke="rgb(0,0,0)" />
<line x1="100" y1="450.794" x2="96" y2="450.794" stroke="rgb(0,0,0)" />
<line x1="100" y1="446.284" x2="96" y2="446.284" stroke="rgb(0,0,0)" />
<line x1="100" y1="441.775" x2="96" y2="441.775" stroke="rgb(0,0,0)" />
<text x="36" y="445" fill="rgb(0,0,0)">
10000</text>
<line x1="100" y1="437.266" x2="92" y2="437.266" stroke="rgb(0,0,0)" />
<line x1="100" y1="432.756" x2="96" y2="432.756" stroke="rgb(0,0,0)" />
<line x1="100" y1="428.247" x2="96" y2="428.247" stroke="rgb(0,0,0)" />
<line x1="100" y1="423.737" x2="96" y2="423.737" stroke="rgb(0,0,0)" />
<line x1="100" y1="419.228" x2="96" y2="419.228" stroke="rgb(0,0,0)" />
<text x="36" y="422" fill="rgb(0,0,0)">
12000</text>
<line x1="100" y1="414.719" x2="92" y2="414.719" stroke="rgb(0,0,0)" />
<line x1="100" y1="410.209" x2="96" y2="410.209" stroke="rgb(0,0,0)" />
<line x1="100" y1="405.7" x2="96" y2="405.7" stroke="rgb(0,0,0)" />
<line x1="100" y1="401.19" x2="96" y2="401.19" stroke="rgb(0,0,0)" />
<line x1="100" y1="396.681" x2="96" y2="396.681" stroke="rgb(0,0,0)" />
<text x="36" y="400" fill="rgb(0,0,0)">
14000</text>
<line x1="100" y1="392.172" x2="92" y2="392.172" stroke="rgb(0,0,0)" />
<line x1="100" y1="387.662" x2="96" y2="387.662" stroke="rgb(0,0,0)" />
<line x1="100" y1="383.153" x2="96" y2="383.153" stroke="rgb(0,0,0)" />
<line x1="100" y1="378.644" x2="96" y2="378.644" stroke="rgb(0,0,0)" />
<line x1="100" y1="374.134" x2="96" y2="374.134" stroke="rgb(0,0,0)" />
<text x="36" y="377" fill="rgb(0,0,0)">
16000</text>
<line x1="100" y1="369.625" x2="92" y2="369.625" stroke="rgb(0,0,0)" />
<line x1="100" y1="365.115" x2="96" y2="365.115" stroke="rgb(0,0,0)" />
<line x1="100" y1="360.606" x2="96" y2="360.606" stroke="rgb(0,0,0)" />
<line x1="100" y1="356.097" x2="96" y2="356.097" stroke="rgb(0,0,0)" />
<line x1="100" y1="351.587" x2="96" y2="351.587" stroke="rgb(0,0,0)" />
<text x="36" y="355" fill="rgb(0,0,0)">
18000</text>
<line x1="100" y1="347.078" x2="92" y2="347.078" stroke="rgb(0,0,0)" />
<line x1="100" y1="342.569" x2="96" y2="342.569" stroke="rgb(0,0,0)" />
<line x1="100" y1="338.059" x2="96" y2="338.059" stroke="rgb(0,0,0)" />
<line x1="100" y1="333.55" x2="96" y2="333.55" stroke="rgb(0,0,0)" />
<line x1="100" y1="329.04" x2="96" y2="329.04" stroke="rgb(0,0,0)" />
<text x="35" y="332" fill="rgb(0,0,0)">
20000</text>
<line x1="100" y1="324.531" x2="92" y2="324.531" stroke="rgb(0,0,0)" />
<line x1="100" y1="320.022" x2="96" y2="320.022" stroke="rgb(0,0,0)" />
<line x1="100" y1="315.512" x2="96" y2="315.512" stroke="rgb(0,0,0)" />
<line x1="100" y1="311.003" x2="96" y2="311.003" stroke="rgb(0,0,0)" />
<line x1="100" y1="306.494" x2="96" y2="306.494" stroke="rgb(0,0,0)" />
<text x="35" y="309" fill="rgb(0,0,0)">
22000</text>
<line x1="100" y1="301.984" x2="92" y2="301.984" stroke="rgb(0,0,0)" />
<line x1="100" y1="297.475" x2="96" y2="297.475" stroke="rgb(0,0,0)" />
<line x1="100" y1="292.965" x2="96" y2="292.965" stroke="rgb(0,0,0)" />
<line x1="100" y1="288.456" x2="96" y2="288.456" stroke="rgb(0,0,0)" />
<line x1="100" y1="283.947" x2="96" y2="283.947" stroke="rgb(0,0,0)" />
<text x="35" y="287" fill="rgb(0,0,0)">
24000</text>
<line x1="100" y1="279.437" x2="92" y2="279.437" stroke="rgb(0,0,0)" />
<line x1="100" y1="274.928" x2="96" y2="274.928" stroke="rgb(0,0,0)" />
<line x1="100" y1="270.418" x2="96" y2="270.418" stroke="rgb(0,0,0)" />
<line x1="100" y1="265.909" x2="96" y2="265.909" stroke="rgb(0,0,0)" />
<line x1="100" y1="261.4" x2="96" y2="261.4" stroke="rgb(0,0,0)" />
<text x="35" y="264" fill="rgb(0,0,0)">
26000</text>
<line x1="100" y1="256.89" x2="92" y2="256.89" stroke="rgb(0,0,0)" />
<line x1="100" y1="252.381" x2="96" y2="252.381" stroke="rgb(0,0,0)" />
<line x1="100" y1="247.872" x2="96" y2="247.872" stroke="rgb(0,0,0)" />
<line x1="100" y1="243.362" x2="96" y2="243.362" stroke="rgb(0,0,0)" />
<line x1="100" y1="238.853" x2="96" y2="238.853" stroke="rgb(0,0,0)" />
<text x="35" y="242" fill="rgb(0,0,0)">
28000</text>
<line x1="100" y1="234.343" x2="92" y2="234.343" stroke="rgb(0,0,0)" />
<line x1="100" y1="229.834" x2="96" y2="229.834" stroke="rgb(0,0,0)" />
<line x1="100" y1="225.325" x2="96" y2="225.325" stroke="rgb(0,0,0)" />
<line x1="100" y1="220.815" x2="96" y2="220.815" stroke="rgb(0,0,0)" />
<line x1="100" y1="216.306" x2="96" y2="216.306" stroke="rgb(0,0,0)" />
<text x="35" y="219" fill="rgb(0,0,0)">
30000</text>
<line x1="100" y1="211.797" x2="92" y2="211.797" stroke="rgb(0,0,0)" />
<line x1="100" y1="207.287" x2="96" y2="207.287" stroke="rgb(0,0,0)" />
<line x1="100" y1="202.778" x2="96" y2="202.778" stroke="rgb(0,0,0)" />
<line x1="100" y1="198.268" x2="96" y2="198.268" stroke="rgb(0,0,0)" />
<line x1="100" y1="193.759" x2="96" y2="193.759" stroke="rgb(0,0,0)" />
<text x="35" y="197" fill="rgb(0,0,0)">
32000</text>
<line x1="100" y1="189.25" x2="92" y2="189.25" stroke="rgb(0,0,0)" />
<line x1="100" y1="184.74" x2="96" y2="184.74" stroke="rgb(0,0,0)" />
<line x1="100" y1="180.231" x2="96" y2="180.231" stroke="rgb(0,0,0)" />
<line x1="100" y1="175.722" x2="96" y2="175.722" stroke="rgb(0,0,0)" />
<line x1="100" y1="171.212" x2="96" y2="171.212" stroke="rgb(0,0,0)" />
<text x="35" y="174" fill="rgb(0,0,0)">
34000</text>
<line x1="100" y1="166.703" x2="92" y2="166.703" stroke="rgb(0,0,0)" />
<line x1="100" y1="162.193" x2="96" y2="162.193" stroke="rgb(0,0,0)" />
<line x1="100" y1="157.684" x2="96" y2="157.684" stroke="rgb(0,0,0)" />
<line x1="100" y1="153.175" x2="96" y2="153.175" stroke="rgb(0,0,0)" />
<line x1="100" y1="148.665" x2="96" y2="148.665" stroke="rgb(0,0,0)" />
<text x="35" y="152" fill="rgb(0,0,0)">
36000</text>
<line x1="100" y1="144.156" x2="92" y2="144.156" stroke="rgb(0,0,0)" />
<line x1="100" y1="139.646" x2="96" y2="139.646" stroke="rgb(0,0,0)" />
<line x1="100" y1="135.137" x2="96" y2="135.137" stroke="rgb(0,0,0)" />
<line x1="100" y1="130.628" x2="96" y2="130.628" stroke="rgb(0,0,0)" />
<line x1="100" y1="126.118" x2="96" y2="126.118" stroke="rgb(0,0,0)" />
<text x="35" y="129" fill="rgb(0,0,0)">
38000</text>
<line x1="100" y1="121.609" x2="92" y2="121.609" stroke="rgb(0,0,0)" />
<line x1="100" y1="117.1" x2="96" y2="117.1" stroke="rgb(0,0,0)" />
<line x1="100" y1="112.59" x2="96" y2="112.59" stroke="rgb(0,0,0)" />
<line x1="100" y1="108.081" x2="96" y2="108.081" stroke="rgb(0,0,0)" />
<line x1="100" y1="103.571" x2="96" y2="103.571" stroke="rgb(0,0,0)" />
<text x="35" y="107" fill="rgb(0,0,0)">
40000</text>
<line x1="100" y1="99.0621" x2="92" y2="99.0621" stroke="rgb(0,0,0)" />
<line x1="100" y1="94.5527" x2="96" y2="94.5527" stroke="rgb(0,0,0)" />
<line x1="100" y1="90.0433" x2="96" y2="90.0433" stroke="rgb(0,0,0)" />
<line x1="100" y1="85.5339" x2="96" y2="85.5339" stroke="rgb(0,0,0)" />
<line x1="100" y1="81.0245" x2="96" y2="81.0245" stroke="rgb(0,0,0)" />
<text x="35" y="84" fill="rgb(0,0,0)">
42000</text>
<line x1="100" y1="76.5152" x2="92" y2="76.5152" stroke="rgb(0,0,0)" />
<line x1="100" y1="72.0058" x2="96" y2="72.0058" stroke="rgb(0,0,0)" />
<line x1="100" y1="67.4964" x2="96" y2="67.4964" stroke="rgb(0,0,0)" />
<line x1="100" y1="62.987" x2="96" y2="62.987" stroke="rgb(0,0,0)" />
<line x1="100" y1="58.4777" x2="96" y2="58.4777" stroke="rgb(0,0,0)" />
<text x="35" y="61" fill="rgb(0,0,0)">
44000</text>
<line x1="100" y1="53.9683" x2="92" y2="53.9683" stroke="rgb(0,0,0)" />
<text x="35" y="370" transform="rotate(-90,35,370)">Time (microseconds)</text>
<text x="120" y="66" fill="rgb(200,0,100)">
bubbleSort</text>
<text x="120" y="98" fill="rgb(100,20,220)">
selectionSort</text>
<text x="120" y="130" fill="rgb(50,220,10)">
insertionSort</text>
<text x="120" y="162" fill="rgb(200,209,220)">
std::sort</text>
<clipPath>
<rect x="100" y="50" width="650" height="500" fill="rgb(0,0,0)" />
</clipPath>
<line x1="100" y1="549.932" x2="105.118" y2="549.853" stroke="rgb(200,0,100)" />
<line x1="105.118" y1="549.853" x2="115.354" y2="549.312" stroke="rgb(200,0,100)" />
<line x1="115.354" y1="549.312" x2="135.827" y2="547.475" stroke="rgb(200,0,100)" />
<line x1="135.827" y1="547.475" x2="176.772" y2="540.17" stroke="rgb(200,0,100)" />
<line x1="176.772" y1="540.17" x2="258.661" y2="511.084" stroke="rgb(200,0,100)" />
<line x1="258.661" y1="511.084" x2="422.441" y2="404.471" stroke="rgb(200,0,100)" />
<line x1="422.441" y1="404.471" x2="750" y2="50" stroke="rgb(200,0,100)" />
<line x1="100" y1="549.966" x2="105.118" y2="549.91" stroke="rgb(100,20,220)" />
<line x1="105.118" y1="549.91" x2="115.354" y2="549.707" stroke="rgb(100,20,220)" />
<line x1="115.354" y1="549.707" x2="135.827" y2="548.873" stroke="rgb(100,20,220)" />
<line x1="135.827" y1="548.873" x2="176.772" y2="546.37" stroke="rgb(100,20,220)" />
<line x1="176.772" y1="546.37" x2="258.661" y2="537.34" stroke="rgb(100,20,220)" />
<line x1="258.661" y1="537.34" x2="422.441" y2="507.24" stroke="rgb(100,20,220)" />
<line x1="422.441" y1="507.24" x2="750" y2="414.933" stroke="rgb(100,20,220)" />
<line x1="100" y1="549.977" x2="105.118" y2="549.966" stroke="rgb(50,220,10)" />
<line x1="105.118" y1="549.966" x2="115.354" y2="549.853" stroke="rgb(50,220,10)" />
<line x1="115.354" y1="549.853" x2="135.827" y2="549.369" stroke="rgb(50,220,10)" />
<line x1="135.827" y1="549.369" x2="176.772" y2="548.309" stroke="rgb(50,220,10)" />
<line x1="176.772" y1="548.309" x2="258.661" y2="543.022" stroke="rgb(50,220,10)" />
<line x1="258.661" y1="543.022" x2="422.441" y2="527.791" stroke="rgb(50,220,10)" />
<line x1="422.441" y1="527.791" x2="750" y2="474.738" stroke="rgb(50,220,10)" />
<line x1="100" y1="549.955" x2="105.118" y2="549.91" stroke="rgb(200,209,220)" />
<line x1="105.118" y1="549.91" x2="115.354" y2="549.786" stroke="rgb(200,209,220)" />
<line x1="115.354" y1="549.786" x2="135.827" y2="549.515" stroke="rgb(200,209,220)" />
<line x1="135.827" y1="549.515" x2="176.772" y2="549.053" stroke="rgb(200,209,220)" />
<line x1="176.772" y1="549.053" x2="258.661" y2="548.129" stroke="rgb(200,209,220)" />
<line x1="258.661" y1="548.129" x2="422.441" y2="546.201" stroke="rgb(200,209,220)" />
<line x1="422.441" y1="546.201" x2="750" y2="542.965" stroke="rgb(200,209,220)" />
</svg>

