<?xml version="1.0" encoding="utf-8"?>
<svg version="1.1" baseProfile="full" width="800" height="600" xmlns="http://www.w3.org/2000/svg">
<clipPath>
<rect x="0" y="0" width="800" height="600" fill="rgb(0,0,0)" />
</clipPath>
<text x="352" y="34" fill="rgb(0,0,0)">
Extreme Days</text>
<line x1="126" y1="50" x2="126" y2="550" stroke="rgb(200,200,200)" />
<line x1="191" y1="50" x2="191" y2="550" stroke="rgb(200,200,200)" />
<line x1="256" y1="50" x2="256" y2="550" stroke="rgb(200,200,200)" />
<line x1="321" y1="50" x2="321" y2="550" stroke="rgb(200,200,200)" />
<line x1="386" y1="50" x2="386" y2="550" stroke="rgb(200,200,200)" />
<line x1="451" y1="50" x2="451" y2="550" stroke="rgb(200,200,200)" />
<line x1="516" y1="50" x2="516" y2="550" stroke="rgb(200,200,200)" />
<line x1="581" y1="50" x2="581" y2="550" stroke="rgb(200,200,200)" />
<line x1="646" y1="50" x2="646" y2="550" stroke="rgb(200,200,200)" />
<line x1="711" y1="50" x2="711" y2="550" stroke="rgb(200,200,200)" />
<line x1="100" y1="550" x2="750" y2="550" stroke="rgb(200,200,200)" />
<line x1="100" y1="500" x2="750" y2="500" stroke="rgb(200,200,200)" />
<line x1="100" y1="450" x2="750" y2="450" stroke="rgb(200,200,200)" />
<line x1="100" y1="400" x2="750" y2="400" stroke="rgb(200,200,200)" />
<line x1="100" y1="350" x2="750" y2="350" stroke="rgb(200,200,200)" />
<line x1="100" y1="300" x2="750" y2="300" stroke="rgb(200,200,200)" />
<line x1="100" y1="250" x2="750" y2="250" stroke="rgb(200,200,200)" />
<line x1="100" y1="200" x2="750" y2="200" stroke="rgb(200,200,200)" />
<line x1="100" y1="150" x2="750" y2="150" stroke="rgb(200,200,200)" />
<line x1="100" y1="100" x2="750" y2="100" stroke="rgb(200,200,200)" />
<line x1="100" y1="50" x2="750" y2="50" stroke="rgb(200,200,200)" />
<line x1="100" y1="550" x2="750" y2="550" stroke="rgb(0,0,0)" />
<line x1="100" y1="550" x2="100" y2="554" stroke="rgb(0,0,0)" />
<line x1="113" y1="550" x2="113" y2="554" stroke="rgb(0,0,0)" />
<text x="126" y="578" fill="rgb(0,0,0)">
1970</text>
<line x1="126" y1="550" x2="126" y2="558" stroke="rgb(0,0,0)" />
<line x1="139" y1="550" x2="139" y2="554" stroke="rgb(0,0,0)" />
<line x1="152" y1="550" x2="152" y2="554" stroke="rgb(0,0,0)" />
<line x1="165" y1="550" x2="165" y2="554" stroke="rgb(0,0,0)" />
<line x1="178" y1="550" x2="178" y2="554" stroke="rgb(0,0,0)" />
<text x="191" y="578" fill="rgb(0,0,0)">
1975</text>
<line x1="191" y1="550" x2="191" y2="558" stroke="rgb(0,0,0)" />
<line x1="204" y1="550" x2="204" y2="554" stroke="rgb(0,0,0)" />
<line x1="217" y1="550" x2="217" y2="554" stroke="rgb(0,0,0)" />
<line x1="230" y1="550" x2="230" y2="554" stroke="rgb(0,0,0)" />
<line x1="243" y1="550" x2="243" y2="554" stroke="rgb(0,0,0)" />
<text x="256" y="578" fill="rgb(0,0,0)">
1980</text>
<line x1="256" y1="550" x2="256" y2="558" stroke="rgb(0,0,0)" />
<line x1="269" y1="550" x2="269" y2="554" stroke="rgb(0,0,0)" />
<line x1="282" y1="550" x2="282" y2="554" stroke="rgb(0,0,0)" />
<line x1="295" y1="550" x2="295" y2="554" stroke="rgb(0,0,0)" />
<line x1="308" y1="550" x2="308" y2="554" stroke="rgb(0,0,0)" />
<text x="321" y="578" fill="rgb(0,0,0)">
1985</text>
<line x1="321" y1="550" x2="321" y2="558" stroke="rgb(0,0,0)" />
<line x1="334" y1="550" x2="334" y2="554" stroke="rgb(0,0,0)" />
<line x1="347" y1="550" x2="347" y2="554" stroke="rgb(0,0,0)" />
<line x1="360" y1="550" x2="360" y2="554" stroke="rgb(0,0,0)" />
<line x1="373" y1="550" x2="373" y2="554" stroke="rgb(0,0,0)" />
<text x="386" y="578" fill="rgb(0,0,0)">
1990</text>
<line x1="386" y1="550" x2="386" y2="558" stroke="rgb(0,0,0)" />
<line x1="399" y1="550" x2="399" y2="554" stroke="rgb(0,0,0)" />
<line x1="412" y1="550" x2="412" y2="554" stroke="rgb(0,0,0)" />
<line x1="425" y1="550" x2="425" y2="554" stroke="rgb(0,0,0)" />
<line x1="438" y1="550" x2="438" y2="554" stroke="rgb(0,0,0)" />
<text x="451" y="578" fill="rgb(0,0,0)">
1995</text>
<line x1="451" y1="550" x2="451" y2="558" stroke="rgb(0,0,0)" />
<line x1="464" y1="550" x2="464" y2="554" stroke="rgb(0,0,0)" />
<line x1="477" y1="550" x2="477" y2="554" stroke="rgb(0,0,0)" />
<line x1="490" y1="550" x2="490" y2="554" stroke="rgb(0,0,0)" />
<line x1="503" y1="550" x2="503" y2="554" stroke="rgb(0,0,0)" />
<text x="516" y="578" fill="rgb(0,0,0)">
2000</text>
<line x1="516" y1="550" x2="516" y2="558" stroke="rgb(0,0,0)" />
<line x1="529" y1="550" x2="529" y2="554" stroke="rgb(0,0,0)" />
<line x1="542" y1="550" x2="542" y2="554" stroke="rgb(0,0,0)" />
<line x1="555" y1="550" x2="555" y2="554" stroke="rgb(0,0,0)" />
<line x1="568" y1="550" x2="568" y2="554" stroke="rgb(0,0,0)" />
<text x="581" y="578" fill="rgb(0,0,0)">
2005</text>
<line x1="581" y1="550" x2="581" y2="558" stroke="rgb(0,0,0)" />
<line x1="594" y1="550" x2="594" y2="554" stroke="rgb(0,0,0)" />
<line x1="607" y1="550" x2="607" y2="554" stroke="rgb(0,0,0)" />
<line x1="620" y1="550" x2="620" y2="554" stroke="rgb(0,0,0)" />
<line x1="633" y1="550" x2="633" y2="554" stroke="rgb(0,0,0)" />
<text x="646" y="578" fill="rgb(0,0,0)">
2010</text>
<line x1="646" y1="550" x2="646" y2="558" stroke="rgb(0,0,0)" />
<line x1="659" y1="550" x2="659" y2="554" stroke="rgb(0,0,0)" />
<line x1="672" y1="550" x2="672" y2="554" stroke="rgb(0,0,0)" />
<line x1="685" y1="550" x2="685" y2="554" stroke="rgb(0,0,0)" />
<line x1="698" y1="550" x2="698" y2="554" stroke="rgb(0,0,0)" />
<text x="711" y="578" fill="rgb(0,0,0)">
2015</text>
<line x1="711" y1="550" x2="711" y2="558" stroke="rgb(0,0,0)" />
<line x1="724" y1="550" x2="724" y2="554" stroke="rgb(0,0,0)" />
<line x1="737" y1="550" x2="737" y2="554" stroke="rgb(0,0,0)" />
<line x1="750" y1="550" x2="750" y2="554" stroke="rgb(0,0,0)" />
<text x="400" y="594" fill="rgb(0,0,0)">
Year</text>
<line x1="100" y1="50" x2="100" y2="550" stroke="rgb(0,0,0)" />
<text x="58" y="558" fill="rgb(0,0,0)">
0</text>
<line x1="100" y1="550" x2="92" y2="550" stroke="rgb(0,0,0)" />
<line x1="100" y1="540" x2="96" y2="540" stroke="rgb(0,0,0)" />
<line x1="100" y1="530" x2="96" y2="530" stroke="rgb(0,0,0)" />
<line x1="100" y1="520" x2="96" y2="520" stroke="rgb(0,0,0)" />
<line x1="100" y1="510" x2="96" y2="510" stroke="rgb(0,0,0)" />
<text x="53" y="508" fill="rgb(0,0,0)">
10</text>
<line x1="100" y1="500" x2="92" y2="500" stroke="rgb(0,0,0)" />
<line x1="100" y1="490" x2="96" y2="490" stroke="rgb(0,0,0)" />
<line x1="100" y1="480" x2="96" y2="480" stroke="rgb(0,0,0)" />
<line x1="100" y1="470" x2="96" y2="470" stroke="rgb(0,0,0)" />
<line x1="100" y1="460" x2="96" y2="460" stroke="rgb(0,0,0)" />
<text x="52" y="458" fill="rgb(0,0,0)">
20</text>
<line x1="100" y1="450" x2="92" y2="450" stroke="rgb(0,0,0)" />
<line x1="100" y1="440" x2="96" y2="440" stroke="rgb(0,0,0)" />
<line x1="100" y1="430" x2="96" y2="430" stroke="rgb(0,0,0)" />
<line x1="100" y1="420" x2="96" y2="420" stroke="rgb(0,0,0)" />
<line x1="100" y1="410" x2="96" y2="410" stroke="rgb(0,0,0)" />
<text x="52" y="408" fill="rgb(0,0,0)">
30</text>
<line x1="100" y1="400" x2="92" y2="400" stroke="rgb(0,0,0)" />
<line x1="100" y1="390" x2="96" y2="390" stroke="rgb(0,0,0)" />
<line x1="100" y1="380" x2="96" y2="380" stroke="rgb(0,0,0)" />
<line x1="100" y1="370" x2="96" y2="370" stroke="rgb(0,0,0)" />
<line x1="100" y1="360" x2="96" y2="360" stroke="rgb(0,0,0)" />
<text x="52" y="358" fill="rgb(0,0,0)">
40</text>
<line x1="100" y1="350" x2="92" y2="350" stroke="rgb(0,0,0)" />
<line x1="100" y1="340" x2="96" y2="340" stroke="rgb(0,0,0)" />
<line x1="100" y1="330" x2="96" y2="330" stroke="rgb(0,0,0)" />
<line x1="100" y1="320" x2="96" y2="320" stroke="rgb(0,0,0)" />
<line x1="100" y1="310" x2="96" y2="310" stroke="rgb(0,0,0)" />
<text x="52" y="308" fill="rgb(0,0,0)">
50</text>
<line x1="100" y1="300" x2="92" y2="300" stroke="rgb(0,0,0)" />
<line x1="100" y1="290" x2="96" y2="290" stroke="rgb(0,0,0)" />
<line x1="100" y1="280" x2="96" y2="280" stroke="rgb(0,0,0)" />
<line x1="100" y1="270" x2="96" y2="270" stroke="rgb(0,0,0)" />
<line x1="100" y1="260" x2="96" y2="260" stroke="rgb(0,0,0)" />
<text x="52" y="258" fill="rgb(0,0,0)">
60</text>
<line x1="100" y1="250" x2="92" y2="250" stroke="rgb(0,0,0)" />
<line x1="100" y1="240" x2="96" y2="240" stroke="rgb(0,0,0)" />
<line x1="100" y1="230" x2="96" y2="230" stroke="rgb(0,0,0)" />
<line x1="100" y1="220" x2="96" y2="220" stroke="rgb(0,0,0)" />
<line x1="100" y1="210" x2="96" y2="210" stroke="rgb(0,0,0)" />
<text x="52" y="208" fill="rgb(0,0,0)">
70</text>
<line x1="100" y1="200" x2="92" y2="200" stroke="rgb(0,0,0)" />
<line x1="100" y1="190" x2="96" y2="190" stroke="rgb(0,0,0)" />
<line x1="100" y1="180" x2="96" y2="180" stroke="rgb(0,0,0)" />
<line x1="100" y1="170" x2="96" y2="170" stroke="rgb(0,0,0)" />
<line x1="100" y1="160" x2="96" y2="160" stroke="rgb(0,0,0)" />
<text x="52" y="158" fill="rgb(0,0,0)">
80</text>
<line x1="100" y1="150" x2="92" y2="150" stroke="rgb(0,0,0)" />
<line x1="100" y1="140" x2="96" y2="140" stroke="rgb(0,0,0)" />
<line x1="100" y1="130" x2="96" y2="130" stroke="rgb(0,0,0)" />
<line x1="100" y1="120" x2="96" y2="120" stroke="rgb(0,0,0)" />
<line x1="100" y1="110" x2="96" y2="110" stroke="rgb(0,0,0)" />
<text x="52" y="108" fill="rgb(0,0,0)">
90</text>
<line x1="100" y1="100" x2="92" y2="100" stroke="rgb(0,0,0)" />
<line x1="100" y1="90" x2="96" y2="90" stroke="rgb(0,0,0)" />
<line x1="100" y1="80" x2="96" y2="80" stroke="rgb(0,0,0)" />
<line x1="100" y1="70" x2="96" y2="70" stroke="rgb(0,0,0)" />
<line x1="100" y1="60" x2="96" y2="60" stroke="rgb(0,0,0)" />
<text x="47" y="58" fill="rgb(0,0,0)">
100</text>
<line x1="100" y1="50" x2="92" y2="50" stroke="rgb(0,0,0)" />
<text x="47" y="356" transform="rotate(-90,47,356)">Number of Days</text>
<text x="120" y="66" fill="rgb(100,0,200)">
NYC Days Below 32</text>
<text x="120" y="98" fill="rgb(100,200,200)">
Burlington Days Below 32</text>
<text x="120" y="130" fill="rgb(200,0,100)">
NYC Days Above 90</text>
<text x="120" y="162" fill="rgb(220,100,0)">
Burlington Days Above 90</text>
<clipPath>
<rect x="100" y="50" width="650" height="500" fill="rgb(0,0,0)" />
</clipPath>
<line x1="100" y1="420" x2="113" y2="465" stroke="rgb(100,0,200)" />
<line x1="113" y1="465" x2="126" y2="405" stroke="rgb(100,0,200)" />
<line x1="126" y1="405" x2="139" y2="460" stroke="rgb(100,0,200)" />
<line x1="139" y1="460" x2="152" y2="455" stroke="rgb(100,0,200)" />
<line x1="152" y1="455" x2="165" y2="470" stroke="rgb(100,0,200)" />
<line x1="165" y1="470" x2="178" y2="455" stroke="rgb(100,0,200)" />
<line x1="178" y1="455" x2="191" y2="490" stroke="rgb(100,0,200)" />
<line x1="191" y1="490" x2="204" y2="405" stroke="rgb(100,0,200)" />
<line x1="204" y1="405" x2="217" y2="350" stroke="rgb(100,0,200)" />
<line x1="217" y1="350" x2="230" y2="360" stroke="rgb(100,0,200)" />
<line x1="230" y1="360" x2="243" y2="425" stroke="rgb(100,0,200)" />
<line x1="243" y1="425" x2="256" y2="420" stroke="rgb(100,0,200)" />
<line x1="256" y1="420" x2="269" y2="435" stroke="rgb(100,0,200)" />
<line x1="269" y1="435" x2="282" y2="445" stroke="rgb(100,0,200)" />
<line x1="282" y1="445" x2="295" y2="460" stroke="rgb(100,0,200)" />
<line x1="295" y1="460" x2="308" y2="445" stroke="rgb(100,0,200)" />
<line x1="308" y1="445" x2="321" y2="435" stroke="rgb(100,0,200)" />
<line x1="321" y1="435" x2="334" y2="480" stroke="rgb(100,0,200)" />
<line x1="334" y1="480" x2="347" y2="485" stroke="rgb(100,0,200)" />
<line x1="347" y1="485" x2="360" y2="435" stroke="rgb(100,0,200)" />
<line x1="360" y1="435" x2="373" y2="395" stroke="rgb(100,0,200)" />
<line x1="373" y1="395" x2="386" y2="535" stroke="rgb(100,0,200)" />
<line x1="386" y1="535" x2="399" y2="520" stroke="rgb(100,0,200)" />
<line x1="399" y1="520" x2="412" y2="505" stroke="rgb(100,0,200)" />
<line x1="412" y1="505" x2="425" y2="490" stroke="rgb(100,0,200)" />
<line x1="425" y1="490" x2="438" y2="415" stroke="rgb(100,0,200)" />
<line x1="438" y1="415" x2="451" y2="465" stroke="rgb(100,0,200)" />
<line x1="451" y1="465" x2="464" y2="420" stroke="rgb(100,0,200)" />
<line x1="464" y1="420" x2="477" y2="510" stroke="rgb(100,0,200)" />
<line x1="477" y1="510" x2="490" y2="520" stroke="rgb(100,0,200)" />
<line x1="490" y1="520" x2="503" y2="480" stroke="rgb(100,0,200)" />
<line x1="503" y1="480" x2="516" y2="400" stroke="rgb(100,0,200)" />
<line x1="516" y1="400" x2="529" y2="505" stroke="rgb(100,0,200)" />
<line x1="529" y1="505" x2="542" y2="525" stroke="rgb(100,0,200)" />
<line x1="542" y1="525" x2="555" y2="400" stroke="rgb(100,0,200)" />
<line x1="555" y1="400" x2="568" y2="420" stroke="rgb(100,0,200)" />
<line x1="568" y1="420" x2="581" y2="455" stroke="rgb(100,0,200)" />
<line x1="581" y1="455" x2="594" y2="515" stroke="rgb(100,0,200)" />
<line x1="594" y1="515" x2="607" y2="460" stroke="rgb(100,0,200)" />
<line x1="607" y1="460" x2="620" y2="490" stroke="rgb(100,0,200)" />
<line x1="620" y1="490" x2="633" y2="425" stroke="rgb(100,0,200)" />
<line x1="633" y1="425" x2="646" y2="465" stroke="rgb(100,0,200)" />
<line x1="646" y1="465" x2="659" y2="470" stroke="rgb(100,0,200)" />
<line x1="659" y1="470" x2="672" y2="525" stroke="rgb(100,0,200)" />
<line x1="672" y1="525" x2="685" y2="450" stroke="rgb(100,0,200)" />
<line x1="685" y1="450" x2="698" y2="405" stroke="rgb(100,0,200)" />
<line x1="698" y1="405" x2="711" y2="420" stroke="rgb(100,0,200)" />
<line x1="711" y1="420" x2="724" y2="490" stroke="rgb(100,0,200)" />
<line x1="724" y1="490" x2="737" y2="460" stroke="rgb(100,0,200)" />
<line x1="737" y1="460" x2="750" y2="480" stroke="rgb(100,0,200)" />
<line x1="100" y1="115" x2="113" y2="75" stroke="rgb(100,200,200)" />
<line x1="113" y1="75" x2="126" y2="115" stroke="rgb(100,200,200)" />
<line x1="126" y1="115" x2="139" y2="155" stroke="rgb(100,200,200)" />
<line x1="139" y1="155" x2="152" y2="140" stroke="rgb(100,200,200)" />
<line x1="152" y1="140" x2="165" y2="280" stroke="rgb(100,200,200)" />
<line x1="165" y1="280" x2="178" y2="230" stroke="rgb(100,200,200)" />
<line x1="178" y1="230" x2="191" y2="200" stroke="rgb(100,200,200)" />
<line x1="191" y1="200" x2="204" y2="190" stroke="rgb(100,200,200)" />
<line x1="204" y1="190" x2="217" y2="170" stroke="rgb(100,200,200)" />
<line x1="217" y1="170" x2="230" y2="115" stroke="rgb(100,200,200)" />
<line x1="230" y1="115" x2="243" y2="260" stroke="rgb(100,200,200)" />
<line x1="243" y1="260" x2="256" y2="145" stroke="rgb(100,200,200)" />
<line x1="256" y1="145" x2="269" y2="210" stroke="rgb(100,200,200)" />
<line x1="269" y1="210" x2="282" y2="205" stroke="rgb(100,200,200)" />
<line x1="282" y1="205" x2="295" y2="315" stroke="rgb(100,200,200)" />
<line x1="295" y1="315" x2="308" y2="245" stroke="rgb(100,200,200)" />
<line x1="308" y1="245" x2="321" y2="140" stroke="rgb(100,200,200)" />
<line x1="321" y1="140" x2="334" y2="235" stroke="rgb(100,200,200)" />
<line x1="334" y1="235" x2="347" y2="245" stroke="rgb(100,200,200)" />
<line x1="347" y1="245" x2="360" y2="240" stroke="rgb(100,200,200)" />
<line x1="360" y1="240" x2="373" y2="185" stroke="rgb(100,200,200)" />
<line x1="373" y1="185" x2="386" y2="370" stroke="rgb(100,200,200)" />
<line x1="386" y1="370" x2="399" y2="310" stroke="rgb(100,200,200)" />
<line x1="399" y1="310" x2="412" y2="295" stroke="rgb(100,200,200)" />
<line x1="412" y1="295" x2="425" y2="220" stroke="rgb(100,200,200)" />
<line x1="425" y1="220" x2="438" y2="250" stroke="rgb(100,200,200)" />
<line x1="438" y1="250" x2="451" y2="205" stroke="rgb(100,200,200)" />
<line x1="451" y1="205" x2="464" y2="225" stroke="rgb(100,200,200)" />
<line x1="464" y1="225" x2="477" y2="210" stroke="rgb(100,200,200)" />
<line x1="477" y1="210" x2="490" y2="355" stroke="rgb(100,200,200)" />
<line x1="490" y1="355" x2="503" y2="255" stroke="rgb(100,200,200)" />
<line x1="503" y1="255" x2="516" y2="225" stroke="rgb(100,200,200)" />
<line x1="516" y1="225" x2="529" y2="240" stroke="rgb(100,200,200)" />
<line x1="529" y1="240" x2="542" y2="305" stroke="rgb(100,200,200)" />
<line x1="542" y1="305" x2="555" y2="160" stroke="rgb(100,200,200)" />
<line x1="555" y1="160" x2="568" y2="220" stroke="rgb(100,200,200)" />
<line x1="568" y1="220" x2="581" y2="205" stroke="rgb(100,200,200)" />
<line x1="581" y1="205" x2="594" y2="330" stroke="rgb(100,200,200)" />
<line x1="594" y1="330" x2="607" y2="190" stroke="rgb(100,200,200)" />
<line x1="607" y1="190" x2="620" y2="250" stroke="rgb(100,200,200)" />
<line x1="620" y1="250" x2="633" y2="235" stroke="rgb(100,200,200)" />
<line x1="633" y1="235" x2="646" y2="250" stroke="rgb(100,200,200)" />
<line x1="646" y1="250" x2="659" y2="285" stroke="rgb(100,200,200)" />
<line x1="659" y1="285" x2="672" y2="390" stroke="rgb(100,200,200)" />
<line x1="672" y1="390" x2="685" y2="270" stroke="rgb(100,200,200)" />
<line x1="685" y1="270" x2="698" y2="215" stroke="rgb(100,200,200)" />
<line x1="698" y1="215" x2="711" y2="220" stroke="rgb(100,200,200)" />
<line x1="711" y1="220" x2="724" y2="365" stroke="rgb(100,200,200)" />
<line x1="724" y1="365" x2="737" y2="305" stroke="rgb(100,200,200)" />
<line x1="737" y1="305" x2="750" y2="275" stroke="rgb(100,200,200)" />
<line x1="100" y1="465" x2="113" y2="470" stroke="rgb(200,0,100)" />
<line x1="113" y1="470" x2="126" y2="440" stroke="rgb(200,0,100)" />
<line x1="126" y1="440" x2="139" y2="460" stroke="rgb(200,0,100)" />
<line x1="139" y1="460" x2="152" y2="475" stroke="rgb(200,0,100)" />
<line x1="152" y1="475" x2="165" y2="460" stroke="rgb(200,0,100)" />
<line x1="165" y1="460" x2="178" y2="465" stroke="rgb(200,0,100)" />
<line x1="178" y1="465" x2="191" y2="510" stroke="rgb(200,0,100)" />
<line x1="191" y1="510" x2="204" y2="475" stroke="rgb(200,0,100)" />
<line x1="204" y1="475" x2="217" y2="435" stroke="rgb(200,0,100)" />
<line x1="217" y1="435" x2="230" y2="495" stroke="rgb(200,0,100)" />
<line x1="230" y1="495" x2="243" y2="460" stroke="rgb(200,0,100)" />
<line x1="243" y1="460" x2="256" y2="390" stroke="rgb(200,0,100)" />
<line x1="256" y1="390" x2="269" y2="470" stroke="rgb(200,0,100)" />
<line x1="269" y1="470" x2="282" y2="495" stroke="rgb(200,0,100)" />
<line x1="282" y1="495" x2="295" y2="370" stroke="rgb(200,0,100)" />
<line x1="295" y1="370" x2="308" y2="500" stroke="rgb(200,0,100)" />
<line x1="308" y1="500" x2="321" y2="505" stroke="rgb(200,0,100)" />
<line x1="321" y1="505" x2="334" y2="495" stroke="rgb(200,0,100)" />
<line x1="334" y1="495" x2="347" y2="440" stroke="rgb(200,0,100)" />
<line x1="347" y1="440" x2="360" y2="390" stroke="rgb(200,0,100)" />
<line x1="360" y1="390" x2="373" y2="470" stroke="rgb(200,0,100)" />
<line x1="373" y1="470" x2="386" y2="490" stroke="rgb(200,0,100)" />
<line x1="386" y1="490" x2="399" y2="355" stroke="rgb(200,0,100)" />
<line x1="399" y1="355" x2="412" y2="505" stroke="rgb(200,0,100)" />
<line x1="412" y1="505" x2="425" y2="355" stroke="rgb(200,0,100)" />
<line x1="425" y1="355" x2="438" y2="455" stroke="rgb(200,0,100)" />
<line x1="438" y1="455" x2="451" y2="405" stroke="rgb(200,0,100)" />
<line x1="451" y1="405" x2="464" y2="535" stroke="rgb(200,0,100)" />
<line x1="464" y1="535" x2="477" y2="490" stroke="rgb(200,0,100)" />
<line x1="477" y1="490" x2="490" y2="510" stroke="rgb(200,0,100)" />
<line x1="490" y1="510" x2="503" y2="415" stroke="rgb(200,0,100)" />
<line x1="503" y1="415" x2="516" y2="515" stroke="rgb(200,0,100)" />
<line x1="516" y1="515" x2="529" y2="475" stroke="rgb(200,0,100)" />
<line x1="529" y1="475" x2="542" y2="390" stroke="rgb(200,0,100)" />
<line x1="542" y1="390" x2="555" y2="510" stroke="rgb(200,0,100)" />
<line x1="555" y1="510" x2="568" y2="540" stroke="rgb(200,0,100)" />
<line x1="568" y1="540" x2="581" y2="435" stroke="rgb(200,0,100)" />
<line x1="581" y1="435" x2="594" y2="510" stroke="rgb(200,0,100)" />
<line x1="594" y1="510" x2="607" y2="500" stroke="rgb(200,0,100)" />
<line x1="607" y1="500" x2="620" y2="490" stroke="rgb(200,0,100)" />
<line x1="620" y1="490" x2="633" y2="515" stroke="rgb(200,0,100)" />
<line x1="633" y1="515" x2="646" y2="365" stroke="rgb(200,0,100)" />
<line x1="646" y1="365" x2="659" y2="450" stroke="rgb(200,0,100)" />
<line x1="659" y1="450" x2="672" y2="455" stroke="rgb(200,0,100)" />
<line x1="672" y1="455" x2="685" y2="465" stroke="rgb(200,0,100)" />
<line x1="685" y1="465" x2="698" y2="510" stroke="rgb(200,0,100)" />
<line x1="698" y1="510" x2="711" y2="450" stroke="rgb(200,0,100)" />
<line x1="711" y1="450" x2="724" y2="440" stroke="rgb(200,0,100)" />
<line x1="724" y1="440" x2="737" y2="485" stroke="rgb(200,0,100)" />
<line x1="737" y1="485" x2="750" y2="445" stroke="rgb(200,0,100)" />
<line x1="100" y1="530" x2="113" y2="540" stroke="rgb(220,100,0)" />
<line x1="113" y1="540" x2="126" y2="505" stroke="rgb(220,100,0)" />
<line x1="126" y1="505" x2="139" y2="530" stroke="rgb(220,100,0)" />
<line x1="139" y1="530" x2="152" y2="540" stroke="rgb(220,100,0)" />
<line x1="152" y1="540" x2="165" y2="530" stroke="rgb(220,100,0)" />
<line x1="165" y1="530" x2="178" y2="530" stroke="rgb(220,100,0)" />
<line x1="178" y1="530" x2="191" y2="475" stroke="rgb(220,100,0)" />
<line x1="191" y1="475" x2="204" y2="525" stroke="rgb(220,100,0)" />
<line x1="204" y1="525" x2="217" y2="490" stroke="rgb(220,100,0)" />
<line x1="217" y1="490" x2="230" y2="510" stroke="rgb(220,100,0)" />
<line x1="230" y1="510" x2="243" y2="520" stroke="rgb(220,100,0)" />
<line x1="243" y1="520" x2="256" y2="530" stroke="rgb(220,100,0)" />
<line x1="256" y1="530" x2="269" y2="535" stroke="rgb(220,100,0)" />
<line x1="269" y1="535" x2="282" y2="540" stroke="rgb(220,100,0)" />
<line x1="282" y1="540" x2="295" y2="505" stroke="rgb(220,100,0)" />
<line x1="295" y1="505" x2="308" y2="535" stroke="rgb(220,100,0)" />
<line x1="308" y1="535" x2="321" y2="550" stroke="rgb(220,100,0)" />
<line x1="321" y1="550" x2="334" y2="545" stroke="rgb(220,100,0)" />
<line x1="334" y1="545" x2="347" y2="495" stroke="rgb(220,100,0)" />
<line x1="347" y1="495" x2="360" y2="450" stroke="rgb(220,100,0)" />
<line x1="360" y1="450" x2="373" y2="515" stroke="rgb(220,100,0)" />
<line x1="373" y1="515" x2="386" y2="530" stroke="rgb(220,100,0)" />
<line x1="386" y1="530" x2="399" y2="500" stroke="rgb(220,100,0)" />
<line x1="399" y1="500" x2="412" y2="525" stroke="rgb(220,100,0)" />
<line x1="412" y1="525" x2="425" y2="515" stroke="rgb(220,100,0)" />
<line x1="425" y1="515" x2="438" y2="510" stroke="rgb(220,100,0)" />
<line x1="438" y1="510" x2="451" y2="460" stroke="rgb(220,100,0)" />
<line x1="451" y1="460" x2="464" y2="550" stroke="rgb(220,100,0)" />
<line x1="464" y1="550" x2="477" y2="535" stroke="rgb(220,100,0)" />
<line x1="477" y1="535" x2="490" y2="550" stroke="rgb(220,100,0)" />
<line x1="490" y1="550" x2="503" y2="460" stroke="rgb(220,100,0)" />
<line x1="503" y1="460" x2="516" y2="550" stroke="rgb(220,100,0)" />
<line x1="516" y1="550" x2="529" y2="495" stroke="rgb(220,100,0)" />
<line x1="529" y1="495" x2="542" y2="465" stroke="rgb(220,100,0)" />
<line x1="542" y1="465" x2="555" y2="520" stroke="rgb(220,100,0)" />
<line x1="555" y1="520" x2="568" y2="550" stroke="rgb(220,100,0)" />
<line x1="568" y1="550" x2="581" y2="525" stroke="rgb(220,100,0)" />
<line x1="581" y1="525" x2="594" y2="520" stroke="rgb(220,100,0)" />
<line x1="594" y1="520" x2="607" y2="500" stroke="rgb(220,100,0)" />
<line x1="607" y1="500" x2="620" y2="535" stroke="rgb(220,100,0)" />
<line x1="620" y1="535" x2="633" y2="540" stroke="rgb(220,100,0)" />
<line x1="633" y1="540" x2="646" y2="495" stroke="rgb(220,100,0)" />
<line x1="646" y1="495" x2="659" y2="515" stroke="rgb(220,100,0)" />
<line x1="659" y1="515" x2="672" y2="485" stroke="rgb(220,100,0)" />
<line x1="672" y1="485" x2="685" y2="505" stroke="rgb(220,100,0)" />
<line x1="685" y1="505" x2="698" y2="535" stroke="rgb(220,100,0)" />
<line x1="698" y1="535" x2="711" y2="505" stroke="rgb(220,100,0)" />
<line x1="711" y1="505" x2="724" y2="490" stroke="rgb(220,100,0)" />
<line x1="724" y1="490" x2="737" y2="510" stroke="rgb(220,100,0)" />
<line x1="737" y1="510" x2="750" y2="465" stroke="rgb(220,100,0)" />
</svg>

